<svg style="position: absolute; width: 0; height: 0;" width="0" height="0" version="1.1" xmlns="http://www.w3.org/2000/svg" xmlns:xlink="http://www.w3.org/1999/xlink">
<symbol viewBox="7.87 7.8 84.25 84.4" id="seal" xmlns="http://www.w3.org/2000/svg">
<path fill="currentColor" d="M50 7.813c-22.738 0-41.277 18.09-42.109 40.624h40.547V17.255c-13.82.687-26.203 10.37-29.906 23.37h22.094V28.522c-3.684 1.622-6.875 4.211-9.27 7.415h-3.863l.586-.871c3.235-4.805 8.07-8.461 13.617-10.297l2.055-.684v19.664H14.599l.406-1.89C18.407 26.01 33.45 14.06 50.001 14.06c16.555 0 31.602 11.95 34.996 27.797l.402 1.89H56.251V24.086l2.055.68C63.85 26.6 68.69 30.257 71.923 35.062l.586.87h-3.867c-2.39-3.198-5.582-5.788-9.266-7.41v12.103H81.47c-3.695-13-16.082-22.684-29.906-23.371v31.184h40.547C91.28 25.903 72.741 7.813 50.002 7.813zM51.562 51.562v31.184c13.828-.688 26.211-10.371 29.906-23.371H59.374v12.102c3.684-1.621 6.875-4.21 9.27-7.414h3.867l-.586.871c-3.235 4.805-8.07 8.46-13.617 10.297l-2.059.684V56.25h29.148l-.402 1.89C81.6 73.99 66.554 85.938 49.999 85.938c-16.551 0-31.594-11.949-34.996-27.797l-.406-1.89h29.152v19.664l-2.055-.68c-5.543-1.836-10.383-5.492-13.617-10.297l-.586-.875h3.867c2.395 3.203 5.586 5.793 9.27 7.414l-.004-12.102H18.53c3.703 13 16.086 22.684 29.906 23.371V51.562H7.889c.832 22.535 19.37 40.625 42.109 40.625s41.277-18.09 42.109-40.625z"/>
</symbol>

<symbol id="plum" xml:space="preserve" fill="#000" viewBox="-0.03 5.05 512.05 501.9" xmlns="http://www.w3.org/2000/svg">
<g id="aSVGRepo_iconCarrier">
<style>.ast0{fill:#f68181}</style>
<path class="ast0" d="M504.412 185.549c-12.69-39.058-39.827-70.824-76.423-89.465-13.762-7.015-27.69-10.422-39.643-11.954-5.173-10.89-12.724-23.102-23.656-34.034-29.029-29.037-67.634-45.025-108.692-45.025-41.058 0-79.663 15.988-108.692 45.025-10.932 10.923-18.49 23.144-23.656 34.034-11.953 1.54-25.898 4.948-39.643 11.962-36.587 18.634-63.717 50.4-76.406 89.457-12.69 39.048-9.409 80.709 9.224 117.288 7.014 13.769 16.288 24.726 25.044 32.997-2.218 11.836-3.281 26.158-.862 41.418 6.421 40.555 28.251 76.18 61.465 100.313 26.443 19.21 57.666 29.364 90.285 29.364 8.053 0 16.172-.636 24.124-1.892 15.267-2.419 28.544-7.86 39.116-13.636 10.572 5.776 23.865 11.216 39.124 13.627a155.198 155.198 0 0 0 24.116 1.892c32.628 0 63.85-10.145 90.285-29.356 33.214-24.132 55.045-59.766 61.474-100.313 2.41-15.268 1.356-29.591-.871-41.418 8.756-8.27 18.03-19.228 25.045-32.997 18.634-36.578 21.915-78.239 9.242-117.287zm-36.814 103.243c-7.701 15.167-19.604 26.15-28.46 32.712l-4.001 2.963 1.49 4.738c2.428 7.735 4.805 18.416 4.805 30.209 0 4.211-.302 8.564-.988 12.992-5.156 32.435-22.55 60.812-49.102 80.123-21.16 15.36-46.021 23.446-72.095 23.455h-.008c-6.429 0-12.924-.52-19.269-1.516-16.809-2.645-30.938-10.572-39.912-16.976l-4.052-2.871-4.051 2.871c-8.974 6.404-23.103 14.331-39.912 16.976a124.042 124.042 0 0 1-19.286 1.516c-26.082-.008-50.934-8.086-72.087-23.455-26.568-19.311-43.946-47.688-49.102-80.115a82.9 82.9 0 0 1-1.004-13.007c0-11.786 2.377-22.467 4.804-30.202l1.491-4.738-3.985-2.963c-8.856-6.555-20.776-17.545-28.477-32.712-8.939-17.561-13.442-36.513-13.442-55.606 0-12.757 2.009-25.572 6.077-38.078 10.153-31.222 31.758-56.535 61.021-71.451 15.084-7.702 31.138-9.618 42.255-9.711l4.972-.05 1.582-4.721c3.491-10.446 10.271-25.179 22.324-37.207 23.237-23.212 53.974-35.944 86.812-35.951 32.838.008 63.583 12.74 86.828 35.96 12.037 12.02 18.817 26.744 22.299 37.198l1.591 4.712 4.971.051c11.117.092 27.172 2.017 42.255 9.71 29.264 14.925 50.877 40.228 61.038 71.46 4.052 12.506 6.061 25.321 6.061 38.069.001 19.102-4.503 38.054-13.443 55.615z"/>
<path class="ast0" d="M398.993 153.004c-16.39-8.354-35.676-5.75-35.676-5.75-12.154.109-23.638-8.881-27.305-19.83 0 0-3.473-19.143-16.49-32.152-16.256-16.255-38.714-26.317-63.524-26.317-24.802 0-47.269 10.062-63.525 26.317-13.007 13.008-16.49 32.152-16.49 32.152-3.515 11.443-14.983 19.939-27.288 19.839 0 0-19.294-2.612-35.692 5.742-20.483 10.446-36.981 28.694-44.649 52.283-7.668 23.588-5.039 48.064 5.391 68.547 8.354 16.398 25.497 25.622 25.497 25.622 10.346 7.115 14.338 20.592 10.421 32.084 0 0-8.438 17.545-5.558 35.718 3.591 22.709 15.854 44.046 35.918 58.627 20.073 14.582 44.155 19.637 66.864 16.046 18.172-2.879 32.243-16.322 32.243-16.322 10.204-7.743 23.178-7.743 33.733 0 0 0 14.079 13.443 32.244 16.314 22.718 3.599 46.791-1.456 66.864-16.038 20.072-14.581 32.327-35.918 35.927-58.627 2.879-18.172-5.558-35.718-5.558-35.718-4.269-11.995.218-25.472 10.413-32.084 0 0 17.143-9.232 25.497-25.631 10.446-20.474 13.058-44.95 5.391-68.538-7.667-23.59-24.157-41.845-44.648-52.284zm-68.229 119.792a21.77 21.77 0 0 1-8.78-1.842c-7.216 9.182-17.218 23.313-27.858 43.929 8.187 2.947 15.612 6.622 22.116 10.932l1.825 1.214-8.89 8.162-1.038-.494c-6.562-3.098-13.846-5.525-21.63-7.215a109.624 109.624 0 0 0-13.367-1.984 95.546 95.546 0 0 0-8.998-.427l-1.825.017c-2.093 0-4.16.074-6.211.2-2.269-.126-4.336-.2-6.412-.2l-1.841-.017c-2.98 0-5.993.142-8.99.427-4.486.402-8.99 1.072-13.385 1.992-7.767 1.682-15.042 4.102-21.596 7.208l-1.038.494-8.932-8.162 1.842-1.214c6.529-4.31 13.954-7.985 22.107-10.932-10.84-21.027-21.028-35.298-27.983-43.87a21.736 21.736 0 0 1-8.647 1.783c-12.229 0-22.19-9.961-22.19-22.207 0-12.238 9.962-22.19 22.19-22.19 12.238 0 22.191 9.952 22.191 22.19 0 2.971-.586 5.867-1.758 8.621 8.094 9.802 20.022 26.359 32.445 51.044 4.411-.954 8.973-1.7 13.594-2.21v-58.82a22.187 22.187 0 0 1-13.895-20.575c0-12.238 9.961-22.191 22.19-22.191 12.229 0 22.19 9.952 22.19 22.191 0 9.09-5.54 17.21-13.895 20.575v58.82c4.63.51 9.191 1.256 13.577 2.21 12.49-24.736 24.409-41.284 32.478-51.044a21.81 21.81 0 0 1-1.774-8.621c0-12.238 9.952-22.19 22.19-22.19 12.23 0 22.191 9.952 22.191 22.19-.002 12.245-9.963 22.206-22.193 22.206z"/>
</g>
</symbol>

<symbol viewBox="0 0 512 512" xml:space="preserve" id="knot-red" xmlns="http://www.w3.org/2000/svg">
<path style="fill:#6e2727" d="M247.172 111.448h17.655v56.276h-17.655zM247.172 326.621h17.655v52.966h-17.655z"/>
<path style="fill:#b33831" d="M218.552 352.828c-9.043 0-18.087-3.439-24.974-10.327-13.759-13.775-13.759-36.172 0-49.931l12.483-12.491-24.966-24.966-12.483 12.483c-13.784 13.784-36.172 13.768-49.94 0-13.759-13.775-13.759-36.172 0-49.931 13.768-13.768 36.156-13.784 49.94 0l12.483 12.483 24.966-24.966-12.483-12.491c-13.768-13.768-13.768-36.163 0-49.931 13.768-13.763 36.156-13.771 49.94 0L256 155.241l12.483-12.483c13.784-13.771 36.172-13.763 49.94 0 13.768 13.768 13.768 36.163 0 49.931L305.94 205.18l24.966 24.966 12.483-12.483c13.784-13.784 36.172-13.768 49.94 0 13.759 13.759 13.759 36.156 0 49.931-13.759 13.775-36.163 13.775-49.94 0l-12.483-12.483-24.966 24.966 12.483 12.491c13.759 13.759 13.759 36.156 0 49.931-13.759 13.775-36.163 13.775-49.94 0L256 330.018 243.516 342.5c-6.886 6.888-15.93 10.328-24.964 10.328zm0-60.259-12.491 12.483c-6.879 6.879-6.879 18.078 0 24.966 6.905 6.888 18.103 6.871 24.974 0l12.483-12.483-24.966-24.966zm49.931 24.966 12.483 12.483c6.879 6.888 18.094 6.871 24.974 0 6.879-6.888 6.879-18.087 0-24.966l-12.491-12.483-24.966 24.966zm-37.449-37.457L256 305.051l24.966-24.974L256 255.113l-24.966 24.965zm37.449-37.448 24.965 24.966 24.974-24.966-24.974-24.966-24.965 24.966zm-74.906 0 24.974 24.966 24.966-24.966-24.966-24.966-24.974 24.966zm149.811 0 12.483 12.483c6.862 6.871 18.078 6.879 24.974 0 6.879-6.888 6.879-18.087 0-24.966-6.888-6.888-18.103-6.871-24.974 0l-12.483 12.483zm-212.234 12.483c6.905 6.879 18.103 6.879 24.974 0l12.483-12.483-12.483-12.483c-6.879-6.879-18.094-6.888-24.974 0-6.879 6.879-6.879 18.077 0 24.966zm99.88-49.932L256 230.148l24.966-24.966L256 180.208l-24.966 24.973zm37.449-37.457 24.965 24.966 12.491-12.483c6.879-6.879 6.879-18.087 0-24.966-6.879-6.888-18.094-6.901-24.974 0l-12.482 12.483zm-49.931-17.646c-4.526 0-9.052 1.72-12.491 5.164-6.879 6.879-6.879 18.087 0 24.966l12.491 12.483 24.966-24.967-12.483-12.483a17.6 17.6 0 0 0-12.483-5.163z"/>
<circle style="fill:#0eaf9b" cx="255.999" cy="388.414" r="17.655"/>
<path style="fill:#b33831" d="M256.029 406.069h-.058c-9.963 0-18.262 7.637-19.09 17.565l-6.567 78.805c-.429 5.148 3.631 9.561 8.797 9.561h33.778c5.164 0 9.226-4.414 8.797-9.56l-6.567-78.805c-.828-9.929-9.128-17.566-19.09-17.566zM249.757 117.344l-22.826-22.826a8.828 8.828 0 0 1 0-12.484l22.826-22.826a8.828 8.828 0 0 1 12.484 0l22.826 22.826a8.828 8.828 0 0 1 0 12.484l-22.826 22.826a8.828 8.828 0 0 1-12.484 0z"/>
<path style="fill:#6e2727" d="M264.827 28.931V8.828c0-4.875-3.948-8.828-8.828-8.828s-8.828 3.953-8.828 8.828v20.104c-5.255 3.058-8.828 8.687-8.828 15.207 0 9.75 7.905 17.655 17.655 17.655s17.655-7.905 17.655-17.655c.002-6.52-3.571-12.149-8.826-15.208z"/>
</symbol>

<symbol viewBox="0 0 98 96" id="github" xmlns="http://www.w3.org/2000/svg">
<path fill-rule="evenodd" clip-rule="evenodd" d="M48.854 0C21.839 0 0 22 0 49.217c0 21.756 13.993 40.172 33.405 46.69 2.427.49 3.316-1.059 3.316-2.362 0-1.141-.08-5.052-.08-9.127-13.59 2.934-16.42-5.867-16.42-5.867-2.184-5.704-5.42-7.17-5.42-7.17-4.448-3.015.324-3.015.324-3.015 4.934.326 7.523 5.052 7.523 5.052 4.367 7.496 11.404 5.378 14.235 4.074.404-3.178 1.699-5.378 3.074-6.6-10.839-1.141-22.243-5.378-22.243-24.283 0-5.378 1.94-9.778 5.014-13.2-.485-1.222-2.184-6.275.486-13.038 0 0 4.125-1.304 13.426 5.052a46.97 46.97 0 0 1 12.214-1.63c4.125 0 8.33.571 12.213 1.63 9.302-6.356 13.427-5.052 13.427-5.052 2.67 6.763.97 11.816.485 13.038 3.155 3.422 5.015 7.822 5.015 13.2 0 18.905-11.404 23.06-22.324 24.283 1.78 1.548 3.316 4.481 3.316 9.126 0 6.6-.08 11.897-.08 13.526 0 1.304.89 2.853 3.316 2.364 19.412-6.52 33.405-24.935 33.405-46.691C97.707 22 75.788 0 48.854 0z" fill="#24292f"/>
</symbol>

<symbol id="email" fill="none" viewBox="1 3 22 18"  xmlns="http://www.w3.org/2000/svg">
    <path d="m4 7 6.2 4.65a3 3 0 0 0 3.6 0L20 7" stroke="currentColor" stroke-width="2" stroke-linecap="round" stroke-linejoin="round"/>
    <rect x="3" y="5" width="18" height="14" rx="2" stroke="currentColor" stroke-width="2" stroke-linecap="round"/>
</symbol>
</svg>