<svg xmlns="http://www.w3.org/2000/svg" xmlns:xlink="http://www.w3.org/1999/xlink" xml:space="preserve" style="shape-rendering:geometricPrecision;text-rendering:geometricPrecision;image-rendering:optimizeQuality;" viewBox="0 0 100 125" x="0px" y="0px" fill-rule="evenodd" clip-rule="evenodd"><defs><style type="text/css">
   
    .fil0 {fill:black}
   
  </style></defs><g><path class="fil0" d="M91.248 38.0318c0.909456,-5.15673 -5.56304,5.72721 -14.6257,7.17762 0,0.00590556 -3.63901,18.2529 -7.82723,16.1423 -1.61104,-0.812605 -2.13545,-8.20636 3.54806,-15.1064 -2.0634,1.21773 -5.37406,3.18546 -9.01661,4.99256 -1.09017,4.45988 -7.97014,13.3218 -8.10124,3.33073 -3.99098,1.19765 -14.0977,1.43741 -16.2426,3.10514 -1.9571,1.52127 -1.87679,6.82801 -6.47722,2.89136 -10.9914,6.05438 -6.03312,6.9284 -11.6729,15.9804 -2.39766,3.84924 -3.14412,-1.52363 -5.47445,-4.15397 -2.33033,-2.63034 -5.13429,-0.157088 -8.504,-1.92285 -5.82052,-2.34096 9.77016,-7.99731 13.6348,-10.5131 0.296459,-0.468901 0.621265,-0.955519 0.966149,-1.45749 1.77875,-2.58545 2.90317,-3.16184 4.21303,-4.77878 0.0779534,-0.812605 0.333073,-1.88387 0.734651,-2.74372 0.706305,-1.50946 8.03156,-9.15125 10.0383,-10.8969 2.00671,-1.74686 0.592918,-3.26105 2.85829,-4.1398 1.13505,-0.440555 5.31855,-0.894102 8.75086,-0.99922 5.44138,-2.78034 11.5477,-6.56108 18.5399,-8.18983 -4.83311,-2.94805 8.10124,-7.46935 8.7296,-1.18347 2.30789,-0.799613 6.65793,-1.36537 8.53353,-1.18347 0.564571,-0.670871 1.82954,-0.270475 2.75199,0.668509 1.52836,-0.0496067 7.02289,3.03664 7.02407,3.03782 2.80278,4.04176 -1.52836,8.19219 -1.53308,8.20282 -0.0496067,0.304727 -0.755911,1.62285 -0.848038,1.73978zm-8.88787 -0.334255c0.355515,-0.642525 1.513,-0.187797 1.16103,0.450004 -0.355515,0.642525 -1.513,0.187797 -1.16103,-0.450004zm-0.57402 -0.433468c0.708667,-1.28269 3.01774,-0.375594 2.31498,0.895283 -0.708667,1.28387 -3.01656,0.375594 -2.31498,-0.895283zm-1.95002 -11.4284c9.33433,-3.56459 7.07013,6.91305 2.52404,9.51622 -0.670871,0.383861 -8.43432,0.82914 -6.93313,-5.42248 0.555122,-2.30907 0.440555,-3.23625 4.40909,-4.09373z"/></g></svg>