<svg xmlns="http://www.w3.org/2000/svg" width="100%" height="100%" viewBox="0 0 3750 4513" fill="#1a1a1a" fill-rule="nonzero" stroke-linejoin="round" stroke-miterlimit="2" xmlns:v="https://vecta.io/nano"><rect fill='#fff' width='100%' height='100%'/><path d="M1423.22 316.039l6.07.27c5.86.625 10.16 3.449 13.56 8.23 4.18 5.871 4.9 10.836 3.6 17.738-4.68 5.211-4.49 4.965-11.48 5.731-5.63-1.578-11.61-2.981-17.05-5.102-6.36-2.476-8.47-3.222-11.35-9.32 2.89-8.191 10.03-12.398 16.65-17.547zm685.79 1489.271c17.97 12.37 35.39 21.84 55.1 31.22 7.19 3.42 20.34 7.43 25.05 13.61l-5.13-.16c-30.5-9.5-60.38-16.09-91.81-21.45 6.53-7.01 11.51-15.24 16.79-23.22zM1535 486.199c9.06-.312 18.09-.742 26.89 1.899 17.69 5.3 41.46 25.062 59.72 19.843 4.44-1.269 6.73-2.078 11.5-1.316 3.3 5.383 4.32 7.625 4.27 13.941l-4.83 4.168c-8.41-.636-14.28-.117-22.29 2.676l-2.23.813c-22.66 10.941-38.94 24.285-52.68 45.55-4.74-27.91-26.46-60.593-20.35-87.574zm-48.98 191.25c12.34 4.688 25.46 32.348 31.37 44.285 9.77 19.7 23.27 51.184 15.67 73.36l-4.09.754-4.45-5.102c-16.05-18.476-40.42-25.812-55.14-44.445-6.13-7.75-10.97-19.403-9.4-29.469 2.33-14.98 14.25-30.644 26.04-39.383zm512.93-25.707c10.33.098 18.54 2.461 27.41 7.613 23.99 13.95 42.98 45.043 49.16 71.618 2.41 10.371 4.94 29.453-.86 38.465l-4.61-2.141c-11.98-14.735-24.73-34.668-39.57-46.227-15.3-11.925-40.04-13.207-51.42-30.418-2.6-3.918-3.65-9.172-2.5-13.687 2.83-11.117 12.84-19.887 22.39-25.223zm80.94-396.054c5.95.804 12.09 1.691 17.52 4.406 18.04 9.027 23.52 43.765 29.76 61.422-23.94-2.801-44.77-4.239-68.18 2.461-7.71 4.515-15.98 8.367-23.92 12.484-1.2-2.199-2.34-4.344-3.38-6.629-5.65-12.371-15.43-30.121-9.31-43.824 7.14-15.969 42.12-24.512 57.51-30.32zm68.52 464.359c9.04 2.91 15.68 6.828 20.79 15.109 22.78 36.91-11.16 92.16-21.32 129.36-4.14-5.844-8.58-11.274-13.19-16.743-9-8.668-18.99-14.375-29.78-20.535l-14.94-29.133c9-11.816 24.52-18.832 29.81-26.191 12.35-17.164-5.48-27.703 28.63-51.867zm-260.49-235.402c28.06 10.793 36.9 47.41 61.66 61.746 7.19 4.164 18.78 3.351 27 6.566 13.45 20.504 16.58 48.703 21.65 72.324-9.44 2.352-18.2 6.055-27.16 9.75l-22.53 18.571c-3.4-13.981-7.29-27.817-11.7-41.508-11.34-35.891-22.98-74.727-58.31-93.114l9.39-34.335zm202.14-148c24.67-2.258 43.67 9.589 61.9 24.917 35.82 30.126 73.63 63.918 77.48 113.7 1.02 13.269 4.2 36.234-4.8 46.91-6.31-2.195-6.5-4.449-9.87-10.031-.49-23.231-1.17-53.711-14.45-73.782-13.24-20.015-29.1-11.648-47.32-19.269-28.9-12.094-33.28-25.539-69.43-32.363-5.41-7.153-12.07-13.961-16.8-21.543-3.52-5.645-3.35-8.157-1.99-14.493 6.72-7.394 16.23-10.293 25.28-14.046zM1493.75 527.25c5.95-.117 12.13.633 17.44 3.496 12.27 6.613 20.15 20.695 23.31 33.859 4.44 18.516.41 30.235-8.83 45.797-10.1 17.032-8.15 36.5-13.94 54.985-6.17-.989-11.19-6.621-16.06-10.571-4.01-2.754-7.93-4.429-12.42-6.199-10.41.539-17.98 7.031-26.37 12.695-6.79-25.742-9.77-54.835-3.25-80.992 6.04-24.226 18.95-40.402 40.12-53.07zm731.75 347.039l2.15-.043c13.22.277 28.81 3.66 37.93 13.992 6.09 6.895 7.56 16.395 6.58 25.289-3 27.196-23.18 47.465-42.87 64.285-20.82-5.796-34.71-6.703-56.04-2.66-6.13.864-12.09 1.344-18.28 1.536-2.5-12.286 5.31-48.547 7.56-62.989 1.56-10.121 2.72-21.887 11.51-28.379 9.76 3.211 17.46 15.891 26.02 22.524 4.14.629 5.32 1.554 9.23-.442 11.09-5.672 13.27-22.148 16.21-33.113zm-339.95-467.82c23.69-1.344 46.47 4.414 66.96 16.449 33.02 19.398 48.49 47.047 57.79 83.148-13.87 3.575-28.76 11.344-42.87 11.938l-1.75-3.508-1.45-2.258c-1.64-2.672-3.18-5.465-5.34-7.761-10.65-11.34-63.59-53.645-78.91-53.645-11.52-.004-22.29 13.684-29.87 21.199.58-15.129.04-34.461 7.64-47.89 6.49-11.461 16.02-14.262 27.8-17.672zM1683.6 350.27c14.78-1.43 31.34 7.058 45.06 12.265 10.88-1.48 21.79-5.117 32.41-8 6.7 1.688 13.16 3.942 19.37 6.996 25.54 12.574 34.39 36.762 42.85 62.078-16.28-10.664-30.79-25.648-50.57-29.66-15.77-3.195-28.68 2.317-41.48 10.785-11.44 11.582-18.01 25.602-25.35 39.899-8.79-5.074-17.28-10.801-26.13-15.711-7.01-3.887-10.6-3.961-18.01-1.863-11.12 9.964-12.03 23.996-14.19 37.953l-2.68-.407c-9.32-15.714-4.07-50.242.04-67.417 5.23-21.801 20.28-35.461 38.68-46.918zm-90.25 9.625c8.02 1.117 15.73 2.835 21.36 9.179 3.13 3.52 4.95 8.379 5.38 13.031 1.1 12.333-2.49 24.938-2.02 37.297.58 15.239 4.58 29.907 4.5 45.336-.83 1.399-1.14 3.282-2.48 4.2-5.64 3.851-57.97-19.469-95.19.136l-2.44 1.305c-9.94 6.746-19.49 14.293-29.16 21.418 1.51-33.809 7.29-56.758 21.86-87.305 9.75-2.519 19.9-4.195 29.77-6.215 15.28-14.531 29.56-28.589 48.42-38.382zm183.89 429.257c2.72-.047 2.45-.113 5.68.258a43.47 43.47 0 0 1 4.47.735 43.97 43.97 0 0 1 4.39 1.187c1.44.469 2.84 1.012 4.23 1.625 1.38.613 2.74 1.301 4.05 2.055a42.78 42.78 0 0 1 3.82 2.449c1.23.879 2.42 1.824 3.55 2.828 1.14 1 2.22 2.059 3.25 3.172a43.58 43.58 0 0 1 2.9 3.488c24.28 32.672 5.24 96.961.29 134.485l-37.12 36.812c-10.1-21.777-19.53-43.379-33.14-63.258-18.23-19.617-41.89-28.371-65.75-39.269 4.58-10.934 9.05-25.77 19.36-32.309 22.26-.558 36.54 34.621 59.14 41.457 1.64-.793 3.78-.957 4.92-2.379 5.51-6.902 1.4-67.324 14.57-90.883l1.39-2.453zm-26.4-378.632c9.7.312 16.79 2.539 25.15 7.511 33.35 19.813 52 61.125 61.23 97.125-21.38 3.883-40.28 8.824-60.2 17.731-15.24-6.649-28.67-11.711-45.25-13.809-16.31 5.188-36.5 14.277-53.34 6.93-.56-.238-1.11-.508-1.64-.805-.54-.297-1.05-.625-1.55-.976s-.98-.727-1.43-1.133c-.47-.403-.9-.828-1.31-1.274-.42-.453-.81-.922-1.17-1.414a17.09 17.09 0 0 1-1.01-1.527c-.32-.524-.6-1.063-.85-1.617s-.47-1.129-.67-1.707c-5.67-16.555 5.13-38.02 12.54-52.481 12.25 7.196 23.79 17.578 35.12 26.227 9.06-31.637 5.13-56.996 34.38-78.781zm437.21-171.59c43.4-.809 39.28 46.218 70.93 58.715 9.19.652 15.95-3.84 23.86-7.918 3.69 6.609 7.35 13.261 10.59 20.109 6.17 13.059 21.74 50.559 17.05 63.719l-1.62-.645 3.55-.422-1.13 1.071c-15.58-7-21.66-26.598-36.47-35.903-.65-.406-1.31-.785-1.97-1.179-36.51-1.969-57.82 13.769-87.75 32.277-13.88-11.621-27.03-24.434-40.82-36.254-2.5-19.195-8.13-37-13.83-55.414 16.45-19.34 34.05-29.25 57.61-38.156zm255.48 85.332c6.28-.477 12.69-.715 18.93.285 14.56 2.332 28.8 12.363 37.53 24.015 14.54 19.383 20.76 46.461 16.79 70.293-3.31 19.872-14.78 44.977-32.31 56.286-5.86 3.781-7.6 2.57-14.17 1.297-62.68-28.309-42.89-75.641-86.4-118.797 18.71-15.969 35.95-26.457 59.63-33.379zm-848.21 392.867c3.52-.32 7.45-.317 10.91.441 24.75 5.375 60.16 75.496 74.66 96.957-13.8 19.434-18.91 34.942-24.35 58.184-9.12 2.601-18.03 6.18-26.94 9.434-11.79 6.871-21.33 14.195-31.29 23.523-12.49-44.707-42.4-98.488-33.56-145.527 3.91-20.782 13.97-31.477 30.57-43.012zm683.26-12.07c12.46-.649 24.3 3.738 33.95 11.605 15.12 12.328 20.52 32.289 21.94 51.043 3.1 41.008-15.39 85.688-41.51 116.531-8-14.047-15.8-26.019-28.13-36.629-17.88-8.453-28.19-5.242-47.06-2.586-7.4 1.039-11.97 1.231-18.03-3.3-.94-3.727 3.95-110.176 5.49-113.926 11.38-1.629 26.37 11.672 35.33 18.051 10.37-19.032 18.25-30.532 38.02-40.789zm-497-143c30.6-1.481 44.55 34.097 70.55 47.32 13.05-8.16 25.06-23.981 41.29-25.043 3.83-.25 7.2.852 10.11 3.293 12.13 10.187 15.86 49.613 16.98 65.047-5.49 7.164-11.69 13.89-17.58 20.73-8.23-5.672-16.56-11.683-25.44-16.297-24.02-12.476-56.41-18.55-82.55-9.543-11.61 4-20.81 10.711-26.25 21.836-.24 6.153-.5 6.227 3.2 11.071 18.61 8.066 44.22-3.133 64.02-5.192-14.67 12.957-33.5 19.727-44.53 36.535-4.56 11.25-9.15 23.157-15.38 33.602-10.19 17.109-26.15 33.949-31.02 53.586-2.61 10.504-2.41 23.258-3.01 34.113-18.11-10.687-32.81-19.558-53.97-21.742-3.82-25.02-11-57.656-5.1-82.348 1.31-5.48 1.71-6.175 6.33-9.195 10.1 5.301 21.53 24.48 30.4 33.582 2.58-33.516 7.51-55.266 27.12-82.57 7.29-10.156 14.07-19.989 17.2-32.301 4.15-16.293-1.99-33.344.09-49.766 1.62-12.777 7.57-19.25 17.54-26.718zm-85.24-7.145c4.3 1.043 8.72 2.098 12.84 3.754 22.12 8.875 31.1 34.523 39.37 54.699-6.41 1.66-13.57 3.195-19.08 7.028-17.87 12.425-20.72 41.664-25.18 61.402-6.9 1.816-14.31 3.492-20.75 6.621-20.89 10.129-25.83 31.66-32.25 51.883-13.04-14.676-21.84-31.93-38.2-43.676-7.87-5.652-17.06-9.195-26.82-7.215-15.05 3.051-23.95 15.27-32.19 27.016-4.06 7.34-7.38 15.219-10.95 22.816-3.95-14.535-7.04-28.554-8.1-43.617-2.08-29.539 2.28-64.961 24.93-86.563 6.61-6.312 15.73-9.425 22.47-15.441 8.5-7.574 13.23-19.715 21.18-28.195 4.58-4.891 9.14-7.586 15.71-7.746 8.31 18.058-.36 41.269 11.55 58.742 12.94 3.574 27.83-35.992 39.94-47.524 7.43-7.078 16.13-10.414 25.53-13.984zm-65.25-352.109c9.97-.356 18.46-.606 27.49 4.449 26.58 14.883 34.19 54.633 40.9 81.891-9.29 3-18.5 6.14-27.36 10.257-25.51 11.836-36.33 30.739-45.42 56.211-2.74-3.957-5.55-7.875-8.85-11.39-6.04-6.426-13.24-11.586-22.44-11.422-17.84.308-31.56 18.707-42.72 30.754-27.09-7.606-54.08-13.297-82.01-16.672.16-16.367 1.88-33.375 5.76-49.281 3.88-15.872 10.84-32.067 25.69-40.52 15.2-8.644 29.14-4.648 44.87-.559 29.29-19.128 49.89-42.074 84.09-53.718zm143.81-70.68c15.3-1.43 29.3-3.059 43.83 3.418 32.66 14.559 44.11 59.414 56.27 90.164 20.08-17.098 41-37.391 69.12-38.176 11.62-.324 22.53 3.469 30.84 11.707 20.96 20.785 21.08 57.992 22.07 85.532-17.78-17.079-34.79-31.582-56.74-43.161-12.81-5.98-27.86-11.519-42.19-10.265-20.1 1.758-33.03 17.16-44.62 31.847-53.66-13.933-95.21-6.679-143.81 18.547-.86-20.179-5.29-38.988-10-58.508l2.13-5.332c16.53-41.234 30.76-67.64 73.1-85.773zm179.6 593.344c20.56 5.633 32.02 30.226 46.77 44.929 7.08-4.386 14.41-10.328 23.18-8.339 26.87 6.078 46.72 47.105 59.86 69.175-30.31 13.817-48.27 30.496-64.22 59.707-17.51-27.738-32.37-50.386-60.36-68.679-7.6-2.207-14.87-3.668-22.84-2.922-24.7 2.324-38.55 19.437-53.09 37.285-9.38-5.047-39.39-8.699-39.6-8.879-6.92-6.031-7.49-34.633-12.38-44.301-6.35-12.547-17.71-21.543-28.02-30.738 9.1-15.512 24.17-31.129 41.4-37.238 23.66-8.391 42.37-.434 63.33 9.945 15.06-8.195 29.19-15.891 45.97-19.945zm195.47 446.611c20.1 1.99 30.68 12.51 45.06 25.37 7.08-4.71 15.04-10.47 23.11-13.14 6.51-2.15 11.69-.58 17.67 2.16 5.64 5.65 7.81 9.53 7.64 17.69-.45 21-16.35 42.19-30.9 56.08-51.01 48.68-128.83 59.76-195.91 57.78-33.32-4.69-59.27-14.53-89.74-28.14 1.7-6.01 3.34-14.34 7.69-19.04 12.21-13.22 58.89-25.32 76.95-33.9 13.38-6.35 25.1-14.63 36.99-23.4 4.06 6.14 7.49 10.47 13.3 15.01 28.44 8.09 51.06-46.18 88.14-56.47zm165.7-687.342c26.07 7.578 43.51 29.856 56.27 52.824 20.39 36.688 16.08 58.153 5.04 96.727 13.89 9.859 20.53 18.441 23.56 35.883 4.89 28.109-8.45 62.844-24.69 85.308-3.87 5.352-6.19 8.723-12.74 9.848-10.4-13.535-10.93-44.359-27.54-67.504l-1.89-2.609c-35.04-39.707-71.85 3.871-101.86.305-.27-.958-.57-1.911-.81-2.875-5.38-21.141 6.3-136.547 18.07-152.61 3.96-5.402 6.68-6.281 13.04-7.453 15.73 4.961 34.13 42.113 44.24 55.953 3.38-33.644-3.04-71.973 9.31-103.797zm-407.12-232.293c6.87 3.309 14.11 7.297 19.12 13.176 17.1 20.07 2.29 34.289 2.17 55.285-.03 4.133.57 4.879 3.3 7.567 12-7.25 16.79-25.348 30.33-29.063 20.02 3.176 85.32 87.672 100.01 107.785-4.33 1.934-8.6 3.989-12.82 6.172-21.41 11.313-29.24 31.199-36.09 52.817-8.32-16.926-17.9-31.957-31.41-45.262-25.85-25.469-63.55-38.438-99.59-31.652-15.23 2.871-30.38 8.55-45.94 8.785-4.24-3.313-5.7-11.864-7.27-17.016-3.38-9.156-7.06-17.965-12.1-26.359-8.57-14.282-22.33-25.461-38.73-29.188-26.08-5.926-85.52 5.735-110.81 16.149-10.88 4.48-21.45 12.433-31.26 18.964 12.06-18.183 25.42-33.25 41.91-47.562 9.05 2.602 18.52 3.961 27.78 5.668 29.67-11.375 57.24-38.844 89.71-40.637 38.43-2.125 38.67 35.352 60.06 55.692 21.62-2.828 23.69-62.985 49.53-79.985.69-.457 1.4-.886 2.1-1.336zm179.85 162.524c27.92 5.863 39.35 37.347 65.1 50.539 26.51 13.586 44.34 51.996 52.92 79.254 17.76 56.461 9.55 117.918-17.14 170.035l-3.96-1.852c-14.43-6.707-32.9-16.843-48.96-9.988-17.21 7.355-24.49 40.375-30.2 56.738-5.19-19.449-10.02-39.34-17.92-57.898-13.78-32.348-34.73-54.879-67.51-68.004-1.67-32.352-15.04-61.965-16.8-93.508 1.64-4.035 1.27-5.14 5.2-7.484 4.22-2.508 7.91-3.012 12.69-1.559 6.86 2.082 11.43 6.703 14.34 13.164 6.23 13.766.39 25.426-4.13 38.742l.29 2.747 2.53 1.82c10.81-2.098 17.95-10.414 27.91-14.363 4.54-1.801 5.12-1.696 9.21.347 12.05 20.707-12.33 46.711-3.79 71.473 4.13 11.949 24.04 38.156 36.03 43.543 3.71 1.66 3.69.793 7.18-.52 5.71-14.984-4.86-33.215-10.55-47.304 4.47-16.442 11.57-38.231 7.93-55.102-1.91-8.836-5.79-17.711-5.56-26.789 8.08-1.918 20.9 3.078 29.1 4.969l3.99-2.914c2.15-13.758-5.34-28.746-7.16-42.477-1.17-8.91 1.73-18.066.76-26.828-.94-8.465-4.37-9.84-10.71-14.363l3.06-1.621-4.11 3.851c-6.39 20.34-3.78 41.625 1.11 61.828-10.95-3.929-22.17-6.902-33.38-9.992-5.64 1.961-13.15 5.492-19.12 5.555-10.95.117-32.33-27.164-40.96-35.078 3.65-16.508 9.45-41.364 23.03-52.164 18.64-.524 16 27.91 30.48 34.832 3.21 1.531 3.89.449 7.02-.618 13.52-17.492-7.12-47.566.58-65.914.45-1.058 1.01-2.062 1.5-3.097zm-614.35-37.832c6.01-.274 12.97-.258 17.91 3.675 4.26 3.387 6.71 7.383 6.27 12.95-.62 7.875-5.12 16.644-8.06 23.926-11.77 29.14-20.45 52.246-16.81 84.16-8.29 8.375-16.11 17.523-22.47 27.461-29.14 45.546-17.64 90.781-15.91 140.996 1.29 37.773.13 66.863 8.26 104.363-5.18-1.938-10.51-3.871-15.45-6.367-20.87-10.551-86.74-120.578-94.7-146.332-2.83-9.164-5.11-20.063-2.35-29.457 3.53-12.055 17.34-20.793 22.98-32.321 11.53-23.539 17.53-49.16 30.02-72.625 1.99-2.757 4.67-5.097 7.07-7.507 9.58-2.778 16.6 4.054 26 4.718 4.37.313 4.56-1.14 7.76-3.808 2.29-5.66 4.17-10.699 3.11-16.907-.87-5.164-3.82-9.171-8.05-12.175-8.26-5.879-22.3-7.762-31.98-5.157-31.25 8.415-41.71 67.411-54.65 92.676-6.48 12.653-17.12 23.356-24.27 35.711-10.17 17.582-7.36 32.18-2.44 50.672-13.77-10.336-29.67-17.398-45.05-24.98-1.49-40.879-2.45-69.93 26.5-101.282 10.63-11.507 20.38-24.047 26.37-38.675 6.94-16.934-3.28-39.594 10.7-54.227 10.87-11.367 33-9.629 47.62-10.258 7.02-5.976 14.98-13.465 24.25-15.355 14.78-3.016 31.38 13.242 42.94 21.293 11.15-9.047 22.03-17.875 34.43-25.168zm-270.16 106.5c8.6.457 21.01 2.715 28 8.218 17.12 13.469-.45 56.481 3.53 77.875.14.774.31 1.536.47 2.305-7.34 2.18-19.08-2.613-27.06-3.629-15.05-1.91-29.32.766-41.18 10.688-28.06 23.484-30.42 68.254-32.55 101.91-14.2 10.512-24.51 19.687-28.96 37.723-10.36 41.972 21.63 89.246 42.91 122.914-53.67 1.558-90.75-9.575-131.48-44.313-9.8-8.422-18.183-18.082-25.648-28.633-21.895-30.953-40.856-78.996-33.512-117.515 2.25-11.774 7.871-24.75 18.625-31.145 24.085-14.332 63.215 23.457 87.925 29.793 9.48 2.43 16.27 1.395 24.68-3.359.5-12.176-15.08-40.52-15.52-63.879-.48-25.41 6.67-54.5 25.55-72.668 8.3-7.981 18.5-12.981 30.2-12.391 15.06.766 22.91 11.453 31.79 22.051 13.5-13.66 25.71-25.852 42.23-35.945zm-12.82 107.468c15.16-.558 26.64 4.93 39.24 12.735 38.27 23.707 61.83 59.816 72.1 102.777 7.13-12.797 14.72-23.043 24.91-33.551 27.65 23.664 46.93 60.219 72.41 87.125-16.27-2.023-32.59-4.847-48.73-.437-12.84 3.508-23.62 10.527-30.15 22.371-15.14 27.457-2.15 64.133 5.81 91.898 4.82 12.7 8.39 26.184 12.45 39.172-50.68-31.445-95.75-52-156.24-55.586-22.85-27.461-42.74-66.519-50.66-101.308-3.39-14.895-4.13-30.551 4.75-43.797 8.65-12.883 23.41-15.195 37.54-17.688-2.83-20.703-7.11-43.179-4.77-64.007 1.97-17.61 7.54-28.684 21.34-39.704zm726.39 718.775c64 32.45 133.74 26.67 202.78 19.6 26.47 76.14 79.9 78.14 100.35 130.38-16.09 39.12-52.18 65.59-78.99 97.18-6.53 9.25-13.41 21.21-22.69 27.9-7.81 5.63-14.64 5.79-23.99 4.46-24.69-3.51-50.03-16.42-73.73-24.49-24.65-8.4-49.77-13.95-75.33-18.75-17.38-32.08-47.09-50.86-66.2-80.51-24.59-38.14-21.28-85.78-11.76-128.25 17.91-7.87 33.69-15.92 49.56-27.52zm-862.18-465.587c46.23-3.148 98.97 32.922 141.04 49.898 35.18-6.351 60.81-1.503 92.12 16.321 61.38 34.941 81.74 86.004 123.31 137.878 19.04 23.77 42.75 44.78 57.24 71.77 8.12 15.11 11.94 33.66 16.5 50.16-24.55 5.3-49.92 5.33-74.72 1.99-38.59-13.87-62.44-41.2-91.96-68.02-26.56 2.14-57.06 7.11-82.86-1-35.59-11.2-49.35-55.79-93.62-76.48-15.79-7.38-36.48-15.49-53.87-17.74-25.8-3.33-56.48 3.74-80.68-6.7-10.655-4.589-19.178-13.733-23.378-24.515-7.836-20.132-2.406-43.761 6.278-62.714 12.94-28.266 34.55-59.579 64.6-70.848zm323.17-58.977c23.48.348 39.44 13.09 59.44 23.516 12.6-10.293 23.32-18.223 38.6-24.109 6.37 2.175 12.84 4.339 19.01 7.047 8 3.519 14.77 9.726 17.54 18.175 7.91 24.098-22.78 65.078-33.92 87.383 24.96-18.047 48.95-34.473 78.22-44.851 17.19 26.691 22.21 58.648 38.08 85.304 3.69 6.199 6.39 9.313 13.22 11.219 7.44-6.293 9.35-14.176 13.29-22.715 5.27-11.41 12.6-21.187 24.91-25.441 12.39-4.289 25.85-1.649 37.89 2.527 66.17 22.945 61.13 91.914 90.27 106.769 20.11-.58 36.16-32.374 54.01-42.878 7.09-4.172 14.84-6.071 22.85-3.461 20.94 6.824 36.03 34.992 45.18 53.299 2.27 4.88 3.79 8.72 4.43 14.16-12.22 12.53-30.94 16.54-44.4 27.74-22.69 18.89-40.32 45.69-60.78 67.23-13.63-34.62-35.99-60.02-69.4-77.06-29.9-15.26-76.41-29.85-110.37-26.02-17.23 1.94-33.96 7.89-51.27 9.93-21.41 2.53-44.18 2.03-64.75 9.01-18.31 6.21-28.75 16.41-37.32 33.52-32.89-34.3-62.64-79.27-84.54-121.419-18.2-35.023-43.02-98.586-29.18-138.214 5.47-15.629 14.58-23.801 28.99-30.661z"/><path d="M1794.68 1.027c23.92-2.406 45.83-1.234 67.26 10.641 33.45 18.535 48.07 51.305 58.24 86.418a195.27 195.27 0 0 1 5.43-3.27c30.7-17.976 71.7-25.91 106.39-16.445 22.62 6.172 41.32 20.149 52.88 40.645 14.65 25.992 15.96 58.742 8.39 87.074 18.37-9.684 35.65-23.113 55.52-29.633 9.99-3.269 21.02-4.437 30.51.973 13.36 7.629 15.99 22.547 19.64 36.218 20.14-12.336 43.76-20.101 67.49-20.351 29.07-.305 54.94 10.504 75.37 31.16 36.54 36.934 43.36 82.969 43.01 132.441-7.69-6.3-16.31-14.062-26.63-14.996-11.46-1.035-20.17 6.801-28.63 13.34-5.46-25.387-9.52-70.398-33.65-85.398-12.1-7.516-24.01-3.844-36.9-1.067-19.16-21.789-36.14-36.89-61.57-51.203-37.46 5.742-50.86 26.477-79.6 35.082l-5.05-4.144c-49.33-38.344-80.16 8.875-99.51 7.449-1.54-20.594-5.01-42.59-14.03-61.375-6.58-13.711-16.36-24.832-31.24-29.535-30.01-9.492-62.88 7.824-89.02 20.976-5.11-13.66-9.82-28.261-16.8-41.07-9.28-17.016-26.3-31.812-45.22-36.965-23.51-6.402-48.91-.601-69.71 11.34-33.18 19.047-46.57 46.785-56.34 82.207-74.98-60.516-100.88 21.852-168.33 24.168-4.15-2.598-4.75-2.965-5.89-8.023-7.97-35.426 4.96-84.676 24.73-114.457 23.09-34.766 51.81-49.899 91.85-57.821 30.95 8.805 42.29 24.035 57.93 50.465a453.25 453.25 0 0 1 8.14-15.043c22.98-40.402 49.97-67.441 95.34-79.801zm-507.4 1125.243c31.34-4.35 52.87 30.19 80.71 46.69 42.94 25.45 78.54 22.34 124.76 10.39 14.61 30.56 29.66 55.67 55.51 78.41 82.31 72.4 189.93 86.6 294.94 80.26-38.44 34.96-89.05 67.64-136.48 89.27-13.65 6.56-33.77 19.04-49.33 14.95-14.25-3.75-19.96-17.78-26.66-29.55-24.94 17.31-49.55 33.93-81.04 34.63-19.44.43-41.45-4.48-55.48-18.78-17.07-17.39-15.56-37.69-15.43-60.07-20.21 15.96-39.41 23.93-65.42 24.45-29.96.6-60.43-8.72-82.11-30.04-21.61-21.26-25.94-44.84-26.1-74.06-26.76-6.05-48.29-19.38-69.29-36.73 6.18-9.02 11.85-18.37 17.65-27.64-9.28-13-19.67-25.72-23.32-41.58-2.75-11.91-2.07-23.74 4.89-34.14 11.78-17.61 32.91-22.31 52.2-26.46zm490.14 431.87c3.6 17.36-6.4 56.74-6.57 77.89-.33 41.72 8.61 83.82 10.79 125.54 5.64 107.29-34.03 150.77-47.83 244.02-11.05 74.6 1.9 153.04-22.62 225.4-18.76 55.35-53.6 105.15-92.33 148.39 9.14-20.31 15.61-39.29 18.6-61.42 5.3-128.58-85.71-189.7-84.03-289.21 1.56-92.23 72.99-161.34 108.36-241.56 20.83-47.28 28.29-92.57 36.04-143.3 31.91-23.7 55.41-54.7 79.59-85.75zm-61.45 137.95c-12.45 50.37-12.02 102.21-22 153.03-4.91 24.97-16.05 48.53-23.49 72.81-25.17 82.06-26.54 162.22-.97 244.6-4.81-54.09-10.93-102.75-4.12-157.33 7.06-56.6 83.5-271.62 50.58-313.11zM1433.79 129.43c9.68-.852 18.78-1.196 27.45 3.808 31.03 17.91 39.85 67.821 48.47 99.516-26.79 20.195-39.21 44.453-56.16 72.746-13.55-6.312-29.54-12.754-44.84-11.199-30.77 3.125-26.88 51.363-45.92 68.531-19.63 17.699-57.47 2.754-73.69 25.352-12.14 16.918-6.36 42.543-2.52 61.128a1120.78 1120.78 0 0 0-32.72 35.922c-8.76-6.242-18.25-13.652-28.71-16.535-21.72-5.98-40.12 6.938-57.84 17.485-12.63-9.364-25.46-15.426-41.67-12.582-2.55.464-5.08 1.046-7.58 1.753a81.48 81.48 0 0 0-7.37 2.469c-2.42.942-4.79 1.996-7.11 3.164s-4.58 2.442-6.77 3.828c-2.2 1.383-4.32 2.872-6.38 4.457-2.05 1.59-4.03 3.27-5.92 5.047a83.72 83.72 0 0 0-5.41 5.59c-1.72 1.949-3.33 3.977-4.85 6.078-24.86 34.801-22.53 77.95-16.04 117.883-5.1.563-12.56-5.574-17.13-8.379-11.19-5.894-23.07-11.554-33.63-18.496-15.708-10.332-23.755-30.758-27.196-48.562-6.059-31.336-1.488-77.536 25.516-98.887 10.8-8.531 25.84-14.324 34.94-24.68 8.86-10.074 12.58-24.879 20.45-35.926a65.29 65.29 0 0 1 4.22-5.226c1.49-1.672 3.06-3.258 4.73-4.77 1.65-1.511 3.38-2.933 5.18-4.265s3.67-2.571 5.6-3.715c1.92-1.145 3.9-2.188 5.93-3.125a66.08 66.08 0 0 1 6.24-2.512 65.21 65.21 0 0 1 6.44-1.859 66.09 66.09 0 0 1 6.61-1.196c34.05-4.527 58.16 14.938 83.28 34.618-5.57-21.309-10.23-42.993-12.09-64.981-3.28-38.605.67-84.879 26.99-115.535 17.14-19.965 45.71-34.723 72.12-36.207 24.51-1.375 40.41 9.824 57.98 24.867a568.31 568.31 0 0 1 14.94-25.996c16.12-26.394 27.69-18.371 54.7-24.637 10.76-2.496 18.8-18.535 29.76-24.972zm-370.94 905.03l7.05-.6c46.35-2.93 71.67 1.52 100.84 39.17 6.44 8.31 12.86 18.47 20.77 25.37 8.78 7.67 29.21 17.09 35.08 25.72 2.17 3.18-15.88 26.76-18.35 36.67-6.36 25.45 4.05 48.27 16.38 69.83-4.07 9.34-6.71 19.95-5.12 30.15 3.86 24.6 31.71 34.65 47.26 51.31 21.21 22.71 18.36 44.74 47.17 66.12-38.07 22.21-75.29 42.81-117.07 57.26-27 7.02-52.17 10.76-80.04 6.73-23.88-3.44-50.51-12.3-65.11-32.82-12.91-18.14-12.92-35.6-9.07-56.4-13.48-13.56-26.21-26.22-33.67-44.11-10.947-26.26-3.12-48.86 7.43-73.68-19.58.24-38.111 3.42-53.916-10.2s-22.445-33.42-23.629-53.7c-2.007-34.29 12.29-69.48 34.973-94.88 24.567-27.51 52.802-39.67 89.022-41.94zm774.87 329.1l2.94 1.37c-11.91 38.91-50.78 126.37-71.48 161.85-38 65.13-106.06 129.67-180.71 148.85-43.06 11.07-73.25 4.81-110.69-17.45-13.9 2.36-28.67 4.04-42.7 1.89-24.92-3.81-37.22-20.76-51.07-39.6-21.25-5.44-42.61-6.8-61.64-18.86-19.96-12.65-26.82-31.57-31.82-53.33-.76-5.5-1.68-10.96-2.53-16.45-4.56-29.43-34.23-62.21-22.34-91.77 9.11-22.67 39.32-39.88 61.07-48.5 12.07 8.6 24.3 17.92 37.89 23.98 32.09 14.28 60.94 11.66 93.05-.94 1.3 6.36 2.63 13.02 6.14 18.59 13.86 22.04 43.15 34.97 67.56 40.35 35.21 7.75 59.27-3.57 88.38-22.05 9 11.15 18.62 20.72 33.35 23.26 51.33 8.84 140.84-81.5 184.6-111.19zm500.22 415.67c7.12-.09 13.79 2.7 20.27 5.36 119.93 49.35 217.31 232.5 264.92 346.28-24.34-28.35-49.77-58.38-86.87-69.64-49.7-15.08-117.24 14.3-169.1 19.38a519.94 519.94 0 0 1-25.25 1.6 520.46 520.46 0 0 1-25.3.38c-8.43-.09-16.86-.37-25.27-.86-8.43-.49-16.83-1.19-25.22-2.09-8.38-.9-16.74-2-25.07-3.31a523.16 523.16 0 0 1-24.89-4.53c-8.26-1.72-16.48-3.63-24.64-5.74a510.95 510.95 0 0 1-24.33-6.93c-64.97-20.64-180-75.45-211.66-136.32-7.63-17.67-12.06-36.12-16.84-54.69 8.26 6.38 16.86 12.82 26.92 16.06 32.23 10.39 61.35-7.3 88.65-22.3 37.81 70.84 80.56 109.71 156.3 137.03-15.27-14.18-43.14-28.79-62.16-45.85-23.25-20.87-70.08-76.76-71.97-108.18 20.3-8.79 95.26 27.68 122.66 31.23 23.29 3.02 45.26-2.85 68.11-6.22 61.98-9.16 107.36 22.81 154.37 58.11l1.01-1.74-4.23 1.83 3.23.34c-.38-1.09-.71-2.2-1.13-3.26-2.95-7.47-12.15-13.06-18.23-18.02-32.77-26.71-64.81-44.11-103.89-59.88 20.08-19.84 30.36-41.69 39.61-68.04zm-698.88-730.79c11.01-.51 21.6-.8 32.45 1.48 62.68 13.16 90.74 61.53 122.74 111.39 18.77-23.43 38.16-48.22 59.39-69.42 15.08-15.05 34.32-31.96 57.01-31.17 18.39.64 27.41 12.22 38.67 25.01 9.6-10.5 21.06-22.41 34.79-27.05 11.78-4 23.39-3.19 34.22 3.03 25.81 14.8 36.91 48.22 44.19 75.02-1.95 7.73-4.07 15.7-6.99 23.12-17.1 43.48-64.49 67.25-104.71 84.05-30.82 17.47-44.84 50.01-74.02 68.35-40.39 25.4-109.71 18.06-153.82 8.24-83.1-18.48-159.46-54.44-206.33-128.96-17.95-28.53-29.63-67.34-20.65-100.97 3.31-12.41 11.04-23.92 22.54-30 20.45-10.82 48.55 2.59 69 8.86 17.58-5.7 33.89-14.98 51.52-20.98zm292.46-199.655c13.44 1.664 24.04 6.242 34.33 14.996 31.43 26.719 39.6 76.129 42.51 114.813 17.23-25.391 20.77-48.926 31.2-76.926 6.1-16.371 21.56-33.805 37.81-40.539 8.87-3.672 18.17-4.086 26.91.121 11.69 5.621 19.3 17.578 23.7 29.371 25.63 68.645-23.95 161.119-51.49 223.399 39.18-32.75 49.57-97.29 86.36-116.86 29.63-15.762 32.88 5.72 57.07 11.34 28.7 6.67 40.33-32.473 59.58-43.91 11.85-7.039 22.8-3.242 35.17-.137 12.75-16.648 25.28-43.551 45.11-52.508 19.35-8.738 43.82-4.558 63.12 2.2 18.22 6.382 37.55 17.043 45.48 35.675 10.7 25.118-7.29 66.05-17.16 89.16-1.44 3.41-2.97 6.76-4.6 10.08-30.62 61.94-66.94 128.69-130.59 161.33-18.23 9.35-38.25 15.53-57.58 22.18 3.94-20.38 7.8-41.93-2.04-61.46-3.59-7.14-9.57-13.2-17.32-15.59-15.6-4.81-28.48 3.14-41.45 10.64-9.13-5.57-18.22-9.85-28.07-13.99-36.66 6.63-60.74 28.57-93.78 43.53-3.2-1.67-5.77-2.86-5.64-7.21.19-6.61 4.1-16.13 5.5-22.9 5.83-28.12 5.15-54.81-7.26-81.16-42.5-90.371-108.41-29.79-132.08-40.52-10.35-4.7-30.67-57.894-41.15-72.09-6.8-9.203-14.65-17.547-23.86-24.375-8.45-6.269-31.64-12.941-35.06-21.609-3.31-8.398 2.27-23.363 5.79-31.484 2.88-6.645 6.44-13.5 13.38-16.364 17.13 6.637 7.3 28.551 20.47 38.457 21.67-5.461 28.32-54.968 55.64-67.66zm554.3 74.289c30.28 6.637 59.16 7.637 88.71 19.207 40.49 15.864 69.33 39.856 86.67 79.939-23.07 46.29-4.24 55.69-6.83 98.43-3.1 51.04-117.59 54.43-149.28 84.09-4.63 4.33-7.35 9.48-7.14 15.83.56 17.01 23.93 32.68 35.79 43.39 16.12 14.55 32.21 30.69 32.56 53.96.38 25.8-14.42 63.97-32.46 82.44-5.1 5.23-7.81 5.7-15.2 5.87-25.09.59-14.58 21.82-29.12 31.47-14.98 1.39-32.16-9.57-45.07-16.18-.11 15.89 1.52 35.16-3.94 50.17-4.62 12.71-12.77 17.46-24.15 23.05-30.22-3.25-58.85-23.02-86.94-34.07-25.28-9.94-51.38-15.99-75.85-28.22a334.18 334.18 0 0 1-29.16-16.75c-9.44-6.07-18.56-12.59-27.35-19.58-17.24-13.69-47.41-39.38-48.95-63.12-.32-4.89.66-11.46 3.82-15.4 10.18-12.68 58.93-29.16 76.37-41.07 9.26-6.33 16.31-15.74 23.31-24.37 87.9-28.8 131.79-54.84 181.33-134.35 34.63-55.59 68.28-128.248 52.88-194.736zM1845.5 1414.38c6.9 21.58-3.91 47.89 9.48 69.12 14.67 23.26 36.96 38.66 55.33 58.5 10.51 11.36 20.38 27.6 32.55 36.89 2.03 1.55 4.94 2.17 7.39 2.78 25.81 6.35 54.16-1.69 80.67 4.69 25.71 6.18 47.79 21.84 74.15 27.66 23.08-9.25 31.04-22.45 44.3-41.96 30.84-13.23 46.23-20.91 61.86-52.24 39.75 70.86 112.36 129.4 109.58 217.66-.99 31.62-14.83 78.52-39.41 99.85-13.99 12.15-27.63 11.88-44.94 10.73l-2.94-.64c-49.64-11.01-96.36-36.43-123.99-79.95-13.3 18.88-26.84 37.68-43 54.25-19.38 19.89-45.87 41.15-75.25 40.53-26-.54-40.69-17.54-57.41-34.58-9.4 10.37-24.06 30.36-38.91 31.33-7.28.48-19.73-8.56-25.54-13-44.28-33.82-64.97-99.39-71.73-152.29-9.46-74.01 3.08-145.32 23.03-216.55 6.03-21.55 10.83-44.75 24.78-62.78zM950.977 873.652c11.058-.382 22.308.192 33.386.34-17.414 31.758-29.433 62.574-20.871 99.238 5.774 24.747 19.356 43.17 40.848 56.36-14.051 8.32-27.887 16.95-40.399 27.5-29.699 25.03-47.332 58.57-50.386 97.39-2.27 28.76 1.261 67.58 21.668 89.88 12.437 13.59 23.875 14.26 41.058 14.62 1.977 38.61 21.739 67.53 46.919 95.53-.5 2.06-.92 4.15-1.25 6.24a78.91 78.91 0 0 0-.75 6.32c-.16 2.11-.23 4.24-.23 6.36.01 2.12.11 4.24.29 6.36a79.44 79.44 0 0 0 .81 6.31c.35 2.09.79 4.17 1.31 6.22a76.19 76.19 0 0 0 1.81 6.1 77.4 77.4 0 0 0 2.31 5.93c9.64 22.65 29.17 38.01 51.7 46.76 47.89 18.62 111.86 13.96 158.39-6.33 1.38 31.2 7.97 37.53 18.8 65.41 6.04 15.56 5.54 29.51-1.53 44.7-22.77 48.9-94.55 81.85-143.57 98.38-22.22 7.54-46.51 11.98-69.97 12.41-40.1.74-79.859-11.41-108.769-40.07-25.449-25.23-38.442-59.06-38.274-94.73.188-38.81 16.746-70.08 24.403-106.83 3.386-16.26 1.953-35.45 9.129-50.52 4.578-9.61 14.898-17.9 22.433-25.24-24.027-5.16-47.773-7.68-69.965-19.31-35.265-18.47-17.062-24.55-26.105-46.73-4.52-11.08-29.047-14.74-39.785-18.97-28.52-11.22-54.543-47.44-66.516-74.97-13.48-31-16.258-66.1-3.187-97.72 14.543-35.19 41.859-57.15 76.332-71.18l.039-2.03c.468-16.08 1.511-30.962 9.457-45.411 14.777-26.887 47.359-33.211 74.336-41.387 2.699-10.422 5.093-21.957 10.23-31.469 8.117-15.047 20.008-21.195 35.899-25.461zm1923.553 58.485c35-3.293 71.49-3.153 102.27 16.23 19.04 11.988 32.47 30.035 37.12 52.183 6.48 30.86-5.46 61.27-22.27 86.76-49.83 75.58-126.01 105.61-211.01 122.95 15.14 17.43 33.23 35.99 40.39 58.47 3.36 10.59 4 22.15-1.38 32.2-10.65 19.89-34.27 25.73-53.96 32.54l16.63 17.09c14.53 14.75 22.32 29.58 21.63 50.7-.65 19.49-11.22 36.21-25.41 48.85-35.77 31.87-82.83 36.2-128.48 33.24 1.03 29.38 5.49 63.6-8.65 90.61-9.78 18.7-26.38 30.71-46.25 36.91-73.31 22.88-151.14-10.76-215.04-44.89-55.5-29.57-113.25-67.07-144.56-123.09l93.07 38.31c23.35 10.26 47.43 25.32 72.4 30.65 13.15 2.81 27.76 2.86 39.25-5.03 19.2-13.18 22.42-37.61 25.96-58.72 4.86.79 9.73 1.55 14.64 1.98 15.78 1.36 28.06-4.71 39.84-14.89 30.05-25.98 60.55-80.58 62.71-120.2 2.65-48.81-39.83-74.04-68.67-106.4 44.66-18.07 124.82-19.27 156.13-58.87 20.23-25.61 6.07-57.73 3.56-86.32-.96-10.88 1.59-23.58 9.95-31.26 11.5-10.54 64.78-20.86 84.82-33.773 23.37-15.058 41.8-37.73 59.54-58.805 15.28-.812 30.73-4.593 45.77-7.425zm188.57-624.985l2.03-.164c-.47 1.125-.73 2.356-1.4 3.375-4.28 6.477-39.71 26.051-48.7 32.321-30.37 21.16-56.28 45.828-78.98 75.015-42.85 55.137-59.92 111.602-92.17 171.106-15.87 29.285-35.07 54.812-56.54 80.105 45.21-15.359 76.38-46.34 110.41-78.383 4.31 3.383 4.36 4.657 5.25 10.18 6.66 41.309-14.02 105.398-38.05 138.981-26.9 37.593-62.74 33.031-103.54 34.539-22 .816-44.81 3.046-66.52 6.789 34.04-42.586 62.35-77.368 59.8-134.715-1.3-29.199-15.8-93.164-38.93-112.574-6.17-5.18-11.4-6.004-19.24-5.387l-.18 3.781 2.23 2.481c29.07 32.55 40.27 89.48 37.65 132.043-3.84 62.269-46.87 96.304-89.97 134.878 24.13-2.964 48.39-2.414 72.62-3.992 19.67-1.281 40.94-5.121 60.56-3.738 7.93.559 15.18 2.914 22.19 6.645 15.12 8.039 24.5 22.41 28.83 38.675 8.3 31.246 1.33 66.313-14.88 93.844-28.92 49.125-86.04 64.52-137.71 77.713-12.24-18.205-25.32-34.447-42.18-48.639-51.5-43.351-111.03-55.644-176.35-50.355 30.4-8.653 59.6-17.114 86.34-34.653 28.6-18.757 56.07-47.996 62.6-82.714 4.91-26.129-3.25-49.875-17.68-71.457-8.23-4.293-16.78-10.055-26.28-9.864l-2.06 2.746c4.37 19.196 20.4 34.457 26.11 54.438l.9 3.191c-4.26 17.793-11.22 32.703-22.17 47.434-33.89 45.578-89.52 67.098-143.91 75.215-14.13-6-27.54-13.008-41.96-18.434-34.42 5.188-48.56 27.824-76.57 43.91-3.31 1.903-3.9.785-7.42-.195-.82-12.133 30.09-40.207 37.65-52.145 12.72-20.07 15.15-44.394 26.05-65.101 22.13-42.063 48.54-47.449 60.43-103.891 6.25-29.656-4.11-49.222-6.81-77.797-1.21-12.808 2.88-25.804 1.48-38.734-3.8-35.074-27.53-76.559-54.79-98.664-18-14.602-41.79-24.594-65.29-21.348-24.43 3.375-10.07 19.313-20.43 32.676-10.79 1.379-19.09 3.672-28.97 8.246-1.84-43.312-7.87-72.23-29.68-110.004 3.69-4.656 7.39-9.605 11.58-13.832 8.19-8.277 18.32-13.433 30.17-12.801 25.74 1.379 47.33 31.696 62.65 49.801 6.87-12.996 15.6-33.836 29.82-40.203 26.09-11.684 43.95 56.051 52.24 73.996 5.78 12.512 13.77 24.93 23.48 34.77 7.07 7.164 18.16 11.039 27.3 14.968 3.51 5.231 6.58 10.497 8.83 16.418 11.07 29.125-14.12 72.551-25.55 99.25 11.26 5.075 27.2 7.422 35.48 17.051 8.59 10.004 11.5 23.067 10.49 35.965-4.56 58.555-54.37 99.332-95.69 134.406 9.57-3.105 19.8-5.84 28.92-10.105 37.98-17.77 69.43-58.801 82.95-97.754 6.84-19.688 13.42-51.695 2.2-70.793-4.44-7.551-11.74-14.176-17.68-20.625-2.84-3.094-8.18-7.516-9.36-11.512-4.95-16.66 9.26-39 16.57-53.242 7 .695 14.3 1.203 21.15 2.875 53.5 13.055-1.05 76.426 20.98 111.5 3.96 6.293 8.18 10.809 15.54 12.406l2.9-3.504c-.44-8.992-6.77-15.57-11.93-22.566 8.51-25.098 24.72-74.027 8.31-99.051-4.66-7.09-17.84-13.23-25.06-17.719-5.22-3.257-10.21-5-12.77-10.753 4.93-6.274 9.78-10.317 17.21-13.426 37.94-15.899 87.01-4.848 123.44 9.496l3.66-6.168c5.68-9.281 11.78-18.289 18.29-27.012a357.34 357.34 0 0 1 20.68-25.238 359.5 359.5 0 0 1 22.88-23.25c7.98-7.402 16.29-14.426 24.91-21.07 102.13-78.309 204.36-70.184 321.64-99.657zm-225.38 130.856c-40.08 22.992-73.6 57.18-85.78 102.867-5.72 21.449-5.44 41.715 1.24 62.824.14.434.26.867.39 1.293 11.71-44.332 20.77-90.789 50.23-127.535 10.88-13.559 23.98-25.449 35.71-38.277l-1.79-1.172zM2689.35 3181.03c52-3.55 103.27 4.17 153.85 15.56-91.59 33.39-129.65 101.71-237.34 111.43-51.41 1.87-102.88-5.74-154.21.93 9.15-16.68 19.87-32.28 32.14-46.81 51.19-59.41 130.71-75.96 205.56-81.11zm-145.16 149.7c60.69-1.11 122.45 18.95 183.07 23.44 135.11 10.03 196.89-38.03 333.23 38.7 26.4 14.86 53.86 29.13 77.1 48.72 106.06 89.38 148.19 233.77 158.47 367.12 4.12 53.46 2.47 107.29 7.05 160.67l-3.36-.53c-41.27-32.33-68-84.01-78.63-134.68-14.25 129.75-17.14 257.08-12.94 387.52-12.34-12.93-29.69-71.64-56.64-101.75-45.38-50.67-103.71-87.85-152.62-134.88-90.67-87.25-161.45-202.41-223.05-311.53-14.41-25.53-31.31-52.23-41.3-79.71-11.06-11.82-19.69-36.91-26.93-51.67-38.48-78.32-72.65-152.46-155.57-191.9l.28 1.37c8.15 41.7 38.62 81.03 56.55 119.45 59.33 127.07 117.6 311.4 76.96 451.39-4.85 16.69-14.08 44.58-30.32 53.42-5.62-22.42-9.46-45.54-13.99-68.21-6.59 79.97-43.53 102.72-84.37 162.85-10.74 15.8-16.49 34.51-27.18 50.19-9.61-84.21-64.66-140.54-75.14-232.11-1.5-13.05-2.08-25.58-.29-38.67 3.2-23.36 26.75-96.93 21.09-112.74-1.44-4.02-1.75-3.33-5.19-5.1-10.99 7.23-52.38 122.97-79.41 143.3l-2.57 1.81c-5.04-6.42-7.56-16.48-10.24-24.2-18.43-53.02-22.85-111.53-16.36-167.14 10.91-93.65 40.85-214.32 103.94-287 22.67-26.12 51.39-46.68 78.36-68.13zm172.99 58.15c112.18 72.07 161.98 145.87 224.68 261.51 4.47 8.25 19.9 42.92 26.55 43.69-52.62-99.33-75.85-178.54-161.19-260.23-17.39-16.65-37.61-34.47-61.14-41.63-9.53-2.9-19.01-3.29-28.9-3.34zm-179.41 23.65c-31.16 57.98-7.09 133.54 2.18 194.19 4.34 28.37 6.64 56.65 8.07 85.3l3.01 4.18c11.67-63.97-2.76-131.94-8.1-195.81-2.38-28.39-1.34-56.7-2.61-85.11l-2.55-2.75zm353.39 2.94c18.34 15.54 33.13 33.83 50.75 49.94 29.77 27.24 82.58 58.48 124.59 55.65 2.91-.2 5.53-.79 8.27-1.74-44.6-8.17-84.73-30.19-116.83-61.85-11.74-11.57-23.87-25.62-38-34.15-8.83-5.32-18.78-6.55-28.78-7.85z"/><path d="M540.535 1646.16c103.914-.66 178.992 33.65 262.387 91.65 30.16 20.97 60.246 42.68 86.351 68.67 64.918 64.61 76.805 125.73 93.563 211.17 39.944 203.61 71.174 331.34 254.734 451.34-16.07-40.08-27.85-81.33-50.57-118.45-20.89-34.15-48.14-64.1-71.03-96.89-59.31-84.99-68.95-177.06-28.28-272.68 31.4-73.8 86.91-141.22 137.95-202.49 32.41 110.25 101.43 208.84 73.22 328.97 23.89-35.73 55.1-66.95 84.3-98.37-3.78 23.62-6.3 45.91-3.7 69.9 3.66 33.74 25.54 78.13 15.49 111.19-26.19 86.17-153.59 117.14-153.93 225.09-.09 25.44 8.75 50.16 23.58 70.67 26.88 37.17 73.92 68.43 109.11 97.96 38.47 32.28 75.62 66.12 113.88 98.62 41.72 35.44 84.49 68.97 123.04 107.99a847.27 847.27 0 0 1 48.51 52.46c15.43 18.16 30.07 36.95 43.92 56.35 12.45 17.62 49.7 84.57 60.12 93.66-2.67-44.94-.6-90.26 2.09-135.14 10-166.56 53.48-239.34 148.43-374.06-21.14-54.54-43.48-109.24-61.44-164.91-54.9-170.14-66.94-339.5-44.39-516.35 13.22 20.98 27.49 40.01 42.72 59.57-3.55 42.31-7.8 84.96-8.09 127.43-.78 112.76 22.75 228.11 59.4 334.41 12.97 37.61 29.73 73.6 43.32 110.95 25.66-47.9 53.26-96.98 66.61-150.03 5.65-22.46 7.47-45.37 12.12-67.95 20.66 92.76-14.04 179.96-63.09 257.47l14.43 31.29 13.66 31.62 12.9 31.95 12.12 32.25 11.34 32.53 10.53 32.8 9.75 33.05 8.93 33.27 8.13 33.48 7.32 33.67 6.5 33.84 5.67 33.98 4.85 34.11 4.02 34.21 3.19 34.31 2.36 34.37c2.08 36.63 1.17 73.69 1.12 110.39 13.68-31.88 27.33-63.59 44.3-93.89 58.51-104.48 161.44-232.33 253.81-308.03 37.41-30.65 106.41-70.93 134.71-104.73 14.9-17.79 21.01-40.42 11.66-62.51-3.36-7.93-7.44-12.02-15.27-15.4-38.51-.4-78.05 13.04-116.03 19.02-47.79 7.53-96.18 11.82-144.27 17-24.02 2.59-48.2 6.74-72.24 8.53 5.98-8.9 12.51-21.05 20.62-28.03 11.04-9.53 26.97-15.65 35.51-27.54-2.98-3.71-2.35-3.09-6.76-3.47-40.27-3.52-84.41 39.91-112.39 64.5l-27.42 24.86c20.87-87.11 41.47-174.09 122.7-224.29 45.42-28.07 179.76-78.26 229.83-65.56 41.18 10.45 76.46 55.71 96.42 90.73 24.18 42.43 38.49 93.79 25.11 142.2-5.37 19.45-14.14 38.11-22.46 56.46 41.87-20.12 115.4-45.62 148.78-74.07 2.22-1.88 4.3-3.9 6.24-6.05 1.95-2.16 3.73-4.45 5.36-6.85a62.63 62.63 0 0 0 4.37-7.52 62.29 62.29 0 0 0 3.3-8.04c25.69-76.44-50.6-150-19.34-233.46 13.75-36.74 43.61-68.05 72.44-93.79 19.63-17.25 39.96-33.64 60.99-49.17a922.37 922.37 0 0 1 64.93-43.83c89-55.39 203.13-102.86 262.2-192.44 10.87 72.23-3.25 135.04-46.96 194.49-24.92 33.9-57.62 62.65-90.44 88.78 56.88-12.04 117.34-47.27 166.21-78.18-49.95 77.78-101.21 123.6-180.28 170.74 46.83-7.5 87.81-21.48 131.33-39.89-25.41 57.39-77.95 100.59-135.9 122.91-86.66 33.38-175.38 38.13-239.38 115.35-17 20.52-29.81 43.82-45.36 65.36 77.37-31.53 159.35-48.53 236.34-81.27 50.7-21.55 139.18-75.16 188.25-79.49 61.22-5.41 133.84 19.98 189.73 43.62 15.32 6.45 30.43 13.37 45.32 20.76a805.41 805.41 0 0 1 43.95 23.53c14.4 8.3 28.53 17.04 42.39 26.21 13.86 9.19 27.42 18.78 40.68 28.81 84.33 63.49 132.56 123.05 239.34 156.22v28.97c-15 6.56-31.41 11.1-47.37 14.58-91.31 19.91-200.23 5.88-284.75-33.7-32.67-15.29-62.61-35.37-92.85-54.88 17.02 27.04 43.14 50.99 65.96 73.23-27.63-.26-54.58-2.39-81.32-9.87-35.41-9.9-68.53-28.4-101.45-44.52-51.44-25.2-102.58-51.17-156.23-71.46-129.42-48.94-261.56-46.63-388.19 10.47 42.69 12.36 87.59 23 131.78 28.14 98.23 11.44 156.12-.06 245.69 60.92 90.28 61.47 177.7 157.64 198.02 267.98 16.31 88.54-13.47 183.49-44.18 265.85-9.38 25.15-19.11 53.86-34.29 76.11-2.55-47.15-7.44-115.06-39.69-151.86-13.04-14.89-30.76-25.86-42.4-41.96l-2.12-2.99c-16.97-23.21-12.13-60.57-29.55-81.45l-1.51 6.62-.05-.03c.36 40.63 5.88 81.46 10.34 121.81-56.53-53.2-110.71-108.84-139.07-182.76-26.6-69.31-40.73-138.86-75.95-205.74-24.1-45.75-62.55-103.1-114.32-118.67-10.74-3.23-28.03-6.96-38.09-1.65-1.7 10.17 6.79 22.72 11 31.88 12.2 26.49 24.92 51.28 44.65 73.17 25.71 28.53 72.84 49.98 83.2 89.07 7.94 29.92-.02 60.34-15.46 86.42-45.59 77.04-145.13 112.62-227.47 134.16 19.62-32.67 36.11-66.79 52.39-101.21-41.93 53.87-93.77 99.22-158.74 122.9-44.19 16.1-81.62 22.05-118.02 54.99 19.79-57.33 37.06-114.99 58.72-171.76-1.58.88-3.15 1.79-4.7 2.72-31.94 19.34-48.59 51.95-57.32 87.25-3.33-12.41-6.86-24.97-9.02-37.65-9-52.75.61-104.94 23.19-153.13 43.04-91.85 126.18-156.7 222.86-184.46 21.91-6.3 45.51-7.28 67.28-13.77 5.84-1.74 8.05-2.67 11.48-7.57-.29-.75-.51-1.53-.84-2.26-4.41-9.79-27.84-17.36-37.14-21.4-57 11.79-103.92 38.35-150.45 72.16-78.55 57.08-144.88 126.88-205.2 202.63-88.55 111.19-149.5 208.15-171.77 350.3-9.73 62.08-15.12 124.83-24.9 186.94 8.98-7.14 18.13-14.08 27.42-20.82 93.13-67.31 195-77.19 306.45-78.43 28.94-.33 61.09-4.13 89.59.51-88.31 18.16-178.04 18.81-264.79 46.24-47.5 15.02-120.71 42.81-148.18 86.05-9.46 14.9-11.29 32.51-19.49 47.46-.55 1-1.13 1.99-1.7 2.98 2.28.27 3.71.51 6.1.42 34.5-1.24 112.91-52.46 137.44-75.8-15.31 32.75-30.51 53.53-61.63 73.3-19.91 12.65-60.07 33.79-84.22 28.53-10.26 69.6-20.99 143.45-20.17 213.84.46 39.54 2.85 80.84 9.27 119.84 11.31 68.73 33.12 136.34 54.39 202.53 27.37 86.83 57.33 172.76 89.86 257.81l42.93 114.85c7.3 19.92 13.67 47.72 25.19 65.3-2.11.93-2.75 1.29-4.81 1.9-12.1 3.68-33.75 4.64-45.02-1.3-9.55-9.25-29.62-65.98-36.14-81.3-38.9-91.45-79.89-182.45-114.94-275.47-35.9-95.29-66.12-193.6-107.5-286.71-11.64-26.78-24.3-53.07-37.98-78.88-13.68-25.78-28.34-51-43.97-75.66-13.68-21.2-33.68-40.1-44.8-62.52-.29-.57-.55-1.16-.83-1.74-5.86 7.46-14.69 12.42-21.76 18.73-8.93 8.06-17.3 16.65-25.13 25.78-7.82 9.13-15.03 18.73-21.62 28.78-47.72 72.33-117.25 257.25-198.74 286.5-12.48 4.49-31.85 7.32-44.05 1.74.5-.61 1.03-1.21 1.52-1.86 25.59-32.12 97.24-216.27 92.81-258.35-10.15 4.25-22.61 48.67-27.6 60.06-16.15 36.89-38.47 73.79-61.09 106.97-24.04 35.27-201.93 262.54-224.78 271.46 10.36-49.53 18.04-100.21 18.32-150.88.48-85.91-11.33-156.95 8.57-242.58 7.95-34.24 23.74-62.55 41.68-92.24 7.93-13.12 16.87-26.13 21.42-40.87.24-.78.44-1.59.67-2.37-2.3 2.6-4.78 5.22-7.7 7.14-12.39 8.12-108.69 47.85-119.27 45.84.5-9.38 1.22-18.69 2.79-27.96 14.05-82.78 57.47-170.22 126.98-219.28 65.68-46.35 113.4-36.12 186.15-18.31 27.45 6.72 54.95 12.14 82.77 17.1-30.96-34.23-62.79-66.9-103.97-88.88-110.74-59.08-245.75-33.91-351.44 22.73-53.99 28.93-98.99 63.22-158.81 81.01-31.7 9.43-110.688 34.71-139.707 19.01 2.168-.4 3.269-.46 5.222-1.23 34.29-13.41 99.775-107.45 117.735-142.32-39.297 20.76-79.18 41.85-121.391 56.11-46.781 15.8-98.265 24.52-142.117 47.9-26.055 13.89-51.461 31.24-73.238 51.12-10.528 9.61-25.653 30.32-39.024 33.89 8.625-15.67 18.043-56.6 26.973-77.48 46.645-109.2 101.816-210.79 193.223-288.89 86.363-73.78 189.034-116.68 300.774-133.86 30.56-4.69 61.96-8.73 92.89-6.11 36.29 3.07 69.88 15.71 101.8 32.81 95.02 50.89 151.34 144.82 206.98 233.28 18.21 28.96 35.32 58.36 57.68 84.41 13.85 16.15 70.5 80.02 88.9 81.46.85-6.6-2.68-11.4-6.22-16.91-32.92-51.42-77.84-94.21-109.84-146.94-32.71-53.9-50.17-112.14-19.12-170.95 11.72-22.19 26.93-42.51 38.49-64.82 16.92-32.64 26.72-68.95 35.41-104.51 59.54 66.31 62.53 151.88 46.98 235.48-7.03 37.84-16.6 74.46-14.77 113.33 2.26 48.13 20.88 91.13 39.45 134.72l2.26-.39c8.4-36.2-10.29-64.65-19.02-98.71-4.85-18.92-7.24-41.08-7.76-60.58-.54-19.75 2.05-93.08 14.52-106.09 4.58 3.97 4.49 9.09 6.38 14.76 1.87 5.63 2.43 9.85 7.75 12.56 5.43-21.94 15.45-42.26 26.58-61.81-.08-7.59-.25-15.2-1.01-22.76-19.89-196.22-247.56-369.56-386.57-486.95l-199.79-167.63c-35.47-28.76-72.24-55.74-107.76-84.34-56.93 20.07-108.891 38.39-161.527 68.9-69.348 40.2-145.871 113.48-222.93 131.42-106.563 24.8-211.402-27.21-318.422-1.44-65.246 15.71-116.969 50.99-152.129 108.16 20.309-89.01 66.578-164.75 142.82-216.74 20.336-13.87 49.028-27.02 64.653-46.1 3.25-3.96 3.566-5.02 3.262-9.99-22.957-7.94-87.165 10.33-111.309 15.43 54.562-101.62 172.961-175.56 281.203-208.59 113.793-34.74 246.883-32.04 348.688 34.4 34.73 22.66 62.651 54.81 99.571 74.27l3.16 1.65c-31.04-45.05-57.067-100.95-95.626-139.63-95.668-95.96-273.668-136.03-403.289-151.16-92.195-10.77-188.824-12.96-275.41-50.02-54.738-23.44-106.192-67.33-151.285-105.97l-4.95-.38c-50.933-4.38-88.976-26.16-121.48-64.97v-98.61c62.898-2.95 121.227-20.66 182.594-32.07 79.242-14.73 186.566-20.32 260.398 16l16.551-56.04c39.625 50.21 87.629 91.7 128.273 140.5-26.875-47.85-35.207-93.91-47.281-146.19zM1925.6 2520.52c-45.54 72.13-91.36 152.84-111.47 236.49-37.1 154.25-3.6 394.18 18.84 552.96 12.12 85.84 24.59 171.57 43.69 256.19 15.15 67.13 34.78 122.17 69.85 181.3 5.73 9.65 12.28 24.58 20.98 31.53 5.25 12.63 21.64 46.41 32.93 53.28-.13-33.26-.8-66.71 1.24-99.89 6.18-100.27 22.46-199.52 31.43-299.54 20.59-229.69 11.36-503.75-46.75-727.59-12.62-48.59-37.5-143.96-60.74-184.73zm-125.15 813.95c-6.06 53.64-30.06 111.15-54.89 159.09 13.56 14.71 46.79 56.02 64.26 62.75 5.93 10.16 15.35 22.25 27.25 25.48.61.17 1.24.23 1.85.35-5.03-38.5-26.21-223.7-38.47-247.67zm-148.1 149.78c-66.57 16.57-118.34 63.9-152.89 121.97-49.13 82.56-64.66 182.08-74.28 276.28 5.76-11.36 7.79-25.86 9.51-38.39l.65-1.66c9.75-26.1 11.98-55.64 19.09-82.7 26.75-101.8 75.32-200.96 175.49-247.37 20.73-9.61 40.57-13.51 62.92-16.65l.01-2.78c-13.3-9.63-24.78-9.48-40.5-8.7zM823.93 2266.7c-111.239 19.55-165.196 117.27-245.157 184.84-11.585 9.79-24.867 23.07-38.082 30.34l2.059 1.51-3.48 1.43c2.531.71 5.773-1.74 8.027-2.95 19.781-10.62 41.965-27.42 59.07-41.82 89.559-72.39 150.746-171.45 282.297-158.46 14.863 1.47 29.363 4.67 43.867 8.11-37.699-19.03-65.765-27.87-108.601-23zm-94.094-441.45c57.383 61.57 115.301 124.93 160.984 195.96 15.063 23.42 54.067 110.83 67.184 121.75-12.973-115.36-108.938-225.43-196.781-295.49-9.012-7.19-20.547-18.48-31.387-22.22zm469.504 1306.91l2.16.61c24.12 6.44 49.5 7.12 73.77 13.14 84.37 20.89 160.15 69.83 224.04 127.59 18.25 16.49 49.29 55.47 70.78 63.57-10.64-20.95-25.66-38.37-41.15-55.85-53.23-60.06-114.83-102.32-191.23-127.22-45.33-14.78-90.81-20.88-138.37-21.84zm1635.9-484.99c45.04 45.67 107.35 66.43 156.73 107.08 24.91 20.52 48.35 43.74 70.06 67.57 15.35 16.84 32.55 42.65 51.04 55.29-53.51-84.45-114.52-156.16-204.91-202.05-21.23-10.78-44.5-21.46-67.7-26.88-1.73-.41-3.47-.73-5.22-1.01zM205.641 1768.56c-29.879 3.51-60.207 6.53-89.258 14.73l1.125-1.68 2.426 2.36c13.332.36 26.621-3.46 39.886-4.8 18.953-1.91 38.789-1.17 57.828-.99 119.981 1.21 234.914 36.96 343.133 86.53 17.625 8.91 38.461 22.41 57.172 27.78-120.523-84.33-264.914-130.38-412.312-123.93zm94.375 128.89c-17.309 1.71-34.75 3.95-52.141 4.43 46.84 13.63 130.531 19.21 180.652 22.41 12.246.78 25.137-.58 37.164.64 16.153-1.16 30.262-3.96 45.125-10.62-72.507 9.52-138.527-19.19-210.8-16.86zm2581.524 320.08c-44.17 41.2-118.52 142.7-124.06 203.19-.21 2.27-.03 4.51.41 6.72 36.38-48.01 54.21-106.53 87.88-156.26 7.12-10.52 35.07-44.41 35.77-53.65zm-199.21 473.85c-69.12 47.11-118.01 111.81-165.3 179.74l.62 2.97.54.15c21.57-24.46 164.94-170.51 165.14-182.18l-1-.68z"/></svg>