<svg xmlns="http://www.w3.org/2000/svg" width="100%" height="100%" viewBox="0 0 9363 13600" fill-rule="evenodd" stroke-linejoin="round" stroke-miterlimit="2" xmlns:v="https://vecta.io/nano"><style><![CDATA[.B{fill-rule:nonzero}.C{fill:#535455}.D{fill:#1a1a1a}.E{fill:#d4d2d2}]]></style><rect fill='#fff' width='100%' height='100%'/><g transform="scale(4.16667)"><g class="B"><path d="M390.03 1196.67h10.448c27.448-17.66 41.616-50.38 42.48-82.38 1.216-45.26-39.04 46.89-52.928 82.38zm27.464 10.88c-6.456 1.97-12.992 2.91-17.016 8.78 12.696 8.27 22.4 15.44 37.968 16.44 22.32-7.83 40.632-17.93 59.64-32.22-27.168.25-53.376 7.59-80.592 7zm443.504-747.137c-5.672 24.496-7.712 60.872 13.072 79.144 3.832 3.368 6 1.184 8.328-2.536 13.728-21.944 1.288-74.192-21.4-87.84v11.232zM1764.59 1527.7c-23.6 20.54-49.94 84.39-22.85 111.68 19.32-15.34 38.01-88.02 22.85-111.68zM378.758 1225.44c-8.4 24.56-5.232 70.8 19.04 87.04l4.072-.45c6.2-8.53 5.736-31.91-1.392-40.82-6.48-15.98-11.944-31.44-21.72-45.77zm988.892 1018.04c20.47-25.79 45.82-49.85 70.28-71.88 73.97-84.62 166.03-145.68 252.09-215.97-55.77 23.87-94.98-25.63-113.74-73.37-26.07-66.34-10.11-101.26 1.79-161.96-127.01 166.1-145.32 340.15-210.42 523.18zM849.678 440.973v-4.344c-21.192-40.75-66.24-95.019-102.536-122.71 8.864 53.04 43.344 119.038 102.536 127.054zm75.16 1384.827c-2.808-14.89-3.744-40.84-11.992-53.4-6.424-9.76-135.784-46.43-156.088-52.1-1.512 5.34-1.28 6.54 0 11.99 57.496 16.06 126.704 50.89 168.08 93.51zm412.872 648.91c66.74-17.29 123.9-89.47 184.46-127.7 40.78-25.73 82.3-37.02 127.1-52.27l-.75-1.95-5.75 1.22c-83.88 11.79-260.68 106.5-310.33 177.8l.72 2.86 4.55.04zM933.054 275.235c-28.92 44.666-63.584 103.358-54.736 159.402 5.896 37.368 105.24 8.096 125.462 1.992-63.47-27.472-69.718-12.616-124.862 4.344 19.912-21.624 33.408-43.033 45.92-69.495l8.216-43.711v-52.532zM1848.53 1498.99c3.35-4.6 7.27-8.49 11.19-12.59 24.66-30.53 46.02-61.26 75.37-87.79-43.76 25.86-122.25 80.31-153.88 118.88 22.28-2.14 45.96-11.75 67.32-18.5zM849.678 265.099c-1-95.728 24.176-266.921 152.452-264.503 60.49 1.14 46.66 30.718 68.79 53.28 72.11-15.044 104.92 72.399 96.23 131.223-12.86 86.988-99.92 133.627-163.37 181.228l4.91 5.151c186.21-144.277 446.7 95.199 268 138.551 69.91 41.224-12.35 112.256-64.04 123.512-152.44 33.184-220.524-142.696-341.58-184.36 88.896 74.648 184.01 139.344 195.28 267.784 6.41 73.08-19.07 155.656-94.68 179.2-.408 466.295-86.352 849.455 156.58 1292.675 53.28 97.23 118.96 186.66 135.13 300.34 6.26-37.69 9-75.75 16.23-113.33 56.34-292.74 170.53-666.72 439.49-830.69-113.12 40.88-212.23 141.39-348.05 78.37-71.38-33.12-95.05-84.38-23.98-130.23-146.5-86.53 79.45-231.43 244.51-121.28 33.73 22.51 62.21 52.7 98.44 71.83l-2.17-2.25c-81.5-83.81-167.51-118.68-167.05-267.76.11-38.43 12.93-72.28 49.28-87.44 18.9 7.09 33.59 15.84 47.67 30.73-11.48-112.4 90.06-96.93 154.02-37.78 182.72 168.99-41.82 383.7 4.52 432.47 41.16-18.59 29.56-138.21 46.42-155.46 13.14-13.44 23.94-53.9 32.7-72.35 81.91-172.56 294.64-152.21 261.34-39.58 159.39-13.74 48.66 238.42-102.54 248.87l-.97 2.1 18.87 3.59c164.78-5.45 275.4 236.49 177.24 237.75-29.64.38-6.08 3.69-.22 29.15-28.77 131.44-258.55 60.99-326.51-65.51v3.48c37.31 91.18 7.65 240.17-88.65 280.38-42.52 17.75-78.56-18.17-74.87-59.62-77.84 111.56-210.02 231.21-303.42 338.54-20.75 23.84-48.31 47.18-64.67 73.84-12.64 20.59-35.81 113.77-28.88 136.17l-.72-.92c15.36-8.02 19.72-32.87 27.75-47.48 90.44-164.59 294.2-239.79 472.07-183.67 40.36 12.74 72.54 34.68 108 56.7-180.06-2.15-234.75 39.67-372.89 158.19-165.19 141.74-204.54 18.88-236.81 27.63-9.56 20.92-17.24 152.81-20.86 185.97-28.2 258.52-106.37 376.74-206.68 594.41l.62-3.51c19.16-103.51 99.01-291.19 72.23-384.4-21.11-73.46-52.43-124.41-72.85-186.21-11.62-14.79-19.47-32.99-30.82-48.32-116.612 19.14-228.98-36.05-308.996-118.91-114.584-118.64-169.992-327.04-167.096-485.91 96.096 257.42 523.372 160.14 499.912 583.16-32.94-77.92-130.544-181.22-206.072-219.02h-7.848c72.256 52.03 183.09 177.71 220.92 263.37 46.57 62.86 64.55 143.89 91.9 215.59 1.68-31.45 9.63-62.63 13.13-93.99 26.45-236.63-1.29-313.32-110.53-518.91-61.07-114.93-136.956-272.92-153.436-404.71-183.72 73.32-344.832-143.89-548.704-74.26-21.592 7.37-42.384 17.93-63.136 27.41 45.968-195.17 383.92-257.09 543.52-140.13 15.8 11.57 29.992 25.87 44.272 39.25l-4.888-34.43c-10.32-74.44-148.728-269.43-210.992-316.47-75.208 4.82-143.08-2.41-206.424-47.03 69.888 67.86 137.28 246.95 11.384 283.39-25.56-9.3-32.896-19.27-46.632-42.56 21.608 207.96-287.272-50.32-130.24-240.83v-7.88c-49.32 63.45-85.512 142.21-164.088 175.59-63.129 26.81-150.345 11.62-108.137-75.29-91.871 16.08-61.471-192.91 150.585-190.34 23.256.28 53.936 5.49 76.184-1.42-90.968-3.69-189.209-36.01-223.569-130.68-17.416-47.97-1.4-90.825 47.544-107.521 5.937.408 11.801 1.16 17.689 0-4.848-64.152 23.088-95.304 93.592-81.712 63.624 12.272 104.168 62.576 138.12 113.343-2.736-42.463-.616-86.087 17.832-125.199 30.624-64.92 117.64-89.008 141.672-9.536 11.599-6.08 23.048-9.496 35.616-12.896 47.032 12.248 64.712 60.92 61.248 105.504-6.152 79.187-56.792 132.267-113.024 180.937l.76 1.49c10.928-3.42 20.712-12 30.904-17.33 216.848-113.35 330.504 72.77 223 82.7 92.872 50.51 35.56 106.07-31.912 140.43 75.256 57.07 140.16 137.46 184.904 220.21-1.488-177.83 24.696-331.9 38.544-507.45 3.944-50.05 13.384-124.547 8.552-173.355-19.352-13.264-30.456-28.952-38.224-50.88l-1.616 4.456c-26.736 74.952-103.04 58.248-142.352 5.952-72.544-96.488-33.488-294.944 60.888-364.544l-9.76-8.632c-78.992 73.176-121.032 232.672-255.56 241.992-69.688 4.832-157.256-51.936-91.168-118.272-140.928 21.112-22.096-247.007 188.336-209.766 24.552 4.346 48.504 12.118 73.08 16.79-66.36-26.225-135.352-45.09-187.4-96.75-53.984-53.583-94.256-178.46 14.632-173.7C570.294 56.144 667.23 43.789 735.15 82.3c67.896 38.495 94.8 111.62 114.528 182.799z" class="D"/><path d="M1913.09 1639.38c-20.52-17.18-137.04-105.02-141.43-117.42l2.4-3.35 7.15-1.12c7.44 3.89 16.67 5.96 23.52 10.21 23.53 34.73 77.7 64.91 108.36 111.68z" fill="#fff"/><path d="M1859.72 1486.4c10.88 8.72 107.21-10.25 154.49 6.9l-.97 2.1 18.87 3.59c-59.33-1.15-126.1 3.24-183.58 0 3.35-4.6 7.27-8.49 11.19-12.59z" class="C"/><path d="M1804.73 1527.7c36.51-3.6 143.59 20.29 182.16 29.7-66.99 2.75-119.93-6.31-182.16-29.7z" fill="#fff"/><path d="M1882.62 1703.86c-16.97-22.66-106.58-140.47-101.32-167.46l1.55-.1c12.52 9.22 20.88 43.03 28.23 58.27 18.58 38.55 58.01 64.29 71.54 105.81v3.48z" class="C"/><path d="M378.758 1225.44c-4.648-7.92-14.496-118.47-12.128-132.57 19.088 25.35 10.4 81.58 19.272 103.4l4.128.4h10.448c-27.496 10.5 6.08 11.81 17.016 10.88-6.456 1.97-12.992 2.91-17.016 8.78l-.24.21c-4.448-1.02-5.64-1.36-10.208-.21l-11.272 9.11z" class="E"/><path d="M390.03 1216.33c8.392 9.73 17.552 19.9 27.464 28.1 24.528 18.12 51.76 47 69.208 72.14-23.128-18.64-43.848-40.45-67-59.29-26.848-21.83-17.056-9.25-19.04 12.13l-.184 1.8c-6.48-15.98-11.944-31.44-21.72-45.77l11.272-9.11z" fill="#6e6e6f"/></g><path d="M730.854 2307.6c39.224 16.44 123.504 59.45 148.064 93.28h-7.848c-14.6-5.94-117.928-76.76-140.216-93.28z" fill="url(#A)"/><g class="B"><path d="M321.214 1308.69c3.336-30.24 37.184-50.48 41.208-79.78l2.576-2.07c15.4 14.2-35.728 77.93-43.784 89.73v-7.88z" class="C"/><path d="M933.054 413.261c17.536-17.27 45.296-43.356 70.726-46.934l4.91 5.151c-21.66 16.238-51.42 29.017-75.636 41.783z" fill="#6e6e6f"/><path d="M849.678 460.413l3.088 2.624c-2.32 8.536-20 21.52-26.84 28.112l-9.76-8.632c8.808-8.376 17.44-16.648 28.424-22.104h5.088z" class="E"/><path d="M1678.84 1331.38c31.25 39.53 82.5 127.29 85.75 175.8-46.62-26.4-74.91-128.3-85.75-175.8zM301.542 1117.13c37.44 1.96 91 87.14 55.136 90.52-36.936 3.48-54.904-7.26-82.32-30.01l-1.688-2.12 1.472-2.42-.344 3.27-.6-1.49 4.096-1.72c35.04 7.38 55.696 17.68 87.608 26.72l2.408.67c-36.464-34.31-39.44-43.74-65.768-83.42zM1642.77 1486.4c40.1-2.54 79.32 13.02 114.2 31.09-9.18 3.79-18.31 7.11-27.74 10.21-26.58 1.4-150.21-29.98-86.46-41.3zM715.23 460.413c41.848-20.384 90.016-30.272 134.448-11.232h-5.088c-41.84 29.184-82.52 20.992-129.36 11.232zM367.31 1207.55c2.712 39.63-77.52 57.56-104.984 63.66l-.368-2.52c23.6-36.22 73.688-36.15 105.352-61.14zm458.616-893.631c35.896 47.137 27.16 78.656 46.704 123.582l-1.56 3.472-10.072-4.344c-18.384-36.818-30.8-76.569-34.616-117.698l-.456-5.012z" fill="#fff"/></g><path d="M544.254 1714.5c45.6-20 81.808-21.6 130.904-10.64l3.112 4.02c-2.024 5-3.224 4.36-7.864 6.62-59.608-8.1-70.512-5.11-126.152 0z" fill="url(#B)"/><path d="M675.158 1703.86l3.112 4.02c-2.024 5-3.224 4.36-7.864 6.62-10.816-9.35-8.808-9.05 4.752-10.64z" fill="#ababad" class="B"/><path d="M675.158 1703.86c27.032.96 55.744 8.59 81.6 16.44-1.512 5.34-1.28 6.54 0 11.99-28.56-7.09-57.408-12.55-86.352-17.79 4.64-2.26 5.84-1.62 7.864-6.62l-3.112-4.02z" fill="url(#C)"/><g class="B"><path d="M1756.97 1316.57l3.18 3.75c7.97 38.44 15.78 93.17 10.1 131.89-9.36-10.18-13.52-119.14-13.28-135.64z" fill="#ababad"/><path d="M1699.15 718.853c5.38-14.224 9.33-44.768-9.13-52.008-.57 13.104-4.76 44.056 4.11 54.192l5.02-2.184zm115.77-92.84c-25.35 1.112-94 12.816-106.1 37.88l3.11 2.952c1.35-.936 86-32.096 102.99-40.832zm-156.67-259.686c19.25-6.932 35.9-4.289 53.68 5.151 64.15 29.994 76.44 119.223 47.78 177.863l-2.74 5.496 1.32-1.44c33.84-37.32 47.8-68.216 105.95-71.952 37.45-2.408 78.47 22.256 64.99 63.416 121.18 16.28 8.67 155.112-88.06 140.328v9.384c72.01 6.328 184.44 104.032 123.98 150.12-7.68 5.848-23.14 4.84-28.62 11.624 6.68 85.08-162.89 65.864-179.56-63.576h-7.84c5.84 51.632-5.59 120.456-57.71 145.376-52.28 24.992-52.39-4.408-69.49-22.456-14.96 2.904-28.48 4.36-43.86 3.872-49.38-26.864-36.02-82.688-20.11-126.792-20.51 33.104-46.23 62.344-68.23 94.4-89.64 130.649-193.45 321.429-370.66 337.339-31.27 2.8-63.98.99-95.38.96 34.64-94.83 174.03-227.507 255.62-289.643 23.52-17.912 52.67-31.368 74.78-50.296l.21.344-1.77 1.808-3.59-2.432c-137.85 82.864-269.74 163.179-345.16 315.329 2.59-202.321 130.78-370.761 336.5-401.049 126.35-18.608 209.72 6.688 296.29-104.928-12.65 7.128-24.08 17.32-37.58 22.752-60.21 24.232-156.78 7.744-182.21-59.344 4.81-13.464 11.29-21.96 21.15-31.968l-14.57-12.912c-2.58-7.656-4.48-15.568-6.58-23.376 20.72-93.76 139.9-71.456 200.97-22.128-35.93-44.28-70.28-99.704-41.57-158.104 15.34-31.189 39.7-28.55 66.59-14.075.16-12.935 4.86-21.551 15.48-29.091z" class="D"/><path d="M1673.01 554.837c5.82 10.728 45.33 109.312 11.79 98.008l-5.96-6.632c-6.31-5.664-9.04-12.584-12.34-20.2.77-4.72.71-8.192 0-12.912l12.34-6.864c-3.48-17.416-6.21-33.552-5.83-51.4z" fill="#fff"/><path d="M1678.84 606.237c-.07 12.856-1.85 27.336 0 39.976-6.31-5.664-9.04-12.584-12.34-20.2.77-4.72.71-8.192 0-12.912l12.34-6.864z" class="C"/><path d="M1711.93 666.845c38.44 16.92 88.58 8.016 129.24 18.344v9.384c-37.62-10.024-106.67-2.432-129.24-27.728z" class="E"/></g><path d="M1749.13 792.741c-12.04-13.256-30.6-86.256-37.2-107.552 22.46 32.736 38.25 68.2 45.04 107.552h-7.84z" fill="url(#D)"/><path d="M1617.75 567.597c21.5 12.048 33 27.336 48.75 45.504.71 4.72.77 8.192 0 12.912-17.31-18.632-34.84-37.024-48.75-58.416z" fill="url(#E)"/><g class="B"><path d="M1741.74 554.837l1.99 2.008c-7.36 30.912-13.44 67.24-38.09 89.368-12.57-13.208 24.65-81.832 36.1-91.376z" fill="#fff"/><path d="M1263.38 2276.01c-243.15-164.1-255.29-443.95-97.56-675.41 7.67-11.25 28.14-44.8 42.08-47.41l1.32 1.37c-45.49 200.44 107.61 292.92 125.83 447.25 8.23 69.59-12.85 156.23-36.05 222.17-5.37 23.28-13.47 47.82-22.31 70.03-.88-26.88 3.19-52.71 0-79.71.69-66.33-43.12-255.47-69.11-295.02-.49 38.02 40.55 188.12 47.31 246.62 4.24 36.68 3.2 73.38 8.49 110.11z" class="D"/><path d="M1276.69 2214.3c5.93 6.02 6.25 18.08 7.55 26.06 6.75-3.39 9.17-11.43 14.76-16.38-5.37 23.28-13.47 47.82-22.31 70.03-.88-26.88 3.19-52.71 0-79.71z" class="C"/></g></g><defs><linearGradient id="A" x1="0" y1="0" x2="1" y2="0" gradientTransform="matrix(37.43,-24.8582,-24.8582,-37.43,809.103,2353.83)" href="#F"><stop offset="0" stop-color="#7c7b7c"/><stop offset="1" stop-color="#959494"/></linearGradient><linearGradient id="B" x1="0" y1="0" x2="1" y2="0" gradientTransform="matrix(23.7755,-40.0891,-40.0891,-23.7755,597.918,1688.69)" href="#F"><stop offset="0" stop-color="#525352"/><stop offset="1" stop-color="#848689"/></linearGradient><linearGradient id="C" x1="0" y1="0" x2="1" y2="0" gradientTransform="matrix(55.1255,-10.5637,-10.5637,-55.1255,679.511,1709.91)" href="#F"><stop offset="0" stop-color="#9d9c9c"/><stop offset="1" stop-color="#cececf"/></linearGradient><linearGradient id="D" x1="0" y1="0" x2="1" y2="0" gradientTransform="matrix(-16.1885,-58.967,-58.967,16.1885,1741.12,714.68)" href="#F"><stop offset="0" stop-color="#535455"/><stop offset="1" stop-color="#757678"/></linearGradient><linearGradient id="E" x1="0" y1="0" x2="1" y2="0" gradientTransform="matrix(-26.6416,31.4565,31.4565,26.6416,1661.86,615.151)" href="#F"><stop offset="0" stop-color="#606060"/><stop offset="1" stop-color="#7d7d7d"/></linearGradient><linearGradient id="F" gradientUnits="userSpaceOnUse"/></defs></svg>