<svg xmlns="http://www.w3.org/2000/svg" width="100%" height="100%" viewBox="0 0 19005 19471" fill-rule="nonzero" stroke-linejoin="round" stroke-miterlimit="2" fill="#1a1a1a" xmlns:v="https://vecta.io/nano"><rect fill='#fff' width='100%' height='100%'/><path d="M6961.88 2973.91c-65.25-22.47-119.38-31.16-171.5-46.27l-159.63-45.15-166.79-50.25c-52.13-15.31-100.58-42.95-155.17-53.17-8.29 14.21-14.79 23.1-18.92 32.98-6.21 14.88-10.75 30.45-15.79 45.08 97.58 57.03 533.54 133.13 687.79 116.78zm-1164-1037.42c-7.58-233.56-34.04-469.28-78.79-703.14-5.13-26.75-7.58-53.93-29.54-78.07 0 16.7-1.21 30.43.17 43.9 16.33 156.95 27.58 314.24 25.63 472.1-.92 74.58-7.75 149.08-9.54 223.67-1.54 65.4 16.08 75.8 80.54 51.63 2.42-.91 4.17-3.55 11.54-10.08zM4794.05 3723.46l10.42 10.95c10.58-8.01 21.75-15.35 31.67-24.15l463.71-414.93c54.79-50.21 102.29-108.38 152.67-163.36 2.79-3.09 1.29-10.18 2.17-19.85-11.25-8.08-23.79-18.4-37.67-26.4-6.63-3.81-15.79-3.2-27.04-5.14l-44.17 47.53c-137.58 155.24-273.17 312.28-427 452.24-30.58 27.82-57.38 59.89-84.88 90.94-14.46 16.35-26.67 34.71-39.88 52.17zm1464.29-1433.21c28.92 45.58 29.5 91.78 62.75 118.52l117.67-72.48c184.25-109.42 354.25-237.85 511.88-382.79 7.92-7.28 24.54-14.43 9.29-33.18-218.33 142.12-426.5 302.35-701.58 369.92zm-783.42-278.34l89.21-41.6c-9.38-30.8-15.13-57.61-25.5-82.52L5332 1398.94c-30.29-67.71-73.21-129.8-111.25-193.97-5.88-9.94-11.17-24.68-34.5-19.08l57.29 137.58c81 194.2 154.25 390.85 193.13 598.73 5.42 29.15 9.88 60 38.25 89.72zm670.63 125.7c32.58 41.11 56.63 77.88 96.96 103.38 7.71-11.42 15.79-19.53 19.33-29.29 31.5-86.53 79.25-164.34 128.25-241.5l284.83-448.7c9.17-14.54 29.08-27.56 13.79-52.53-57.38 46.52-99.21 105.1-143.33 161.65l-312.29 398.82-87.54 108.16zm-1787.13-20.55l-2.42 9.29c9.25 5.12 18.21 10.86 27.75 15.28 254.38 117.37 503.5 244.57 740.21 395.06 10.33 6.57 24.38 7.32 40.04 11.74 10.21-33.38 21.92-61.01 14.79-93.99-19.33-12.11-37.04-25.64-56.71-35.1l-427.92-203.39c-90.71-41.8-185.17-74.19-283-95.51-17-3.71-35.13-2.38-52.75-3.38zm1646.75 7371.49c2.83-32.25 6.63-48.08 5.17-63.42-4.46-46.83-8.04-94.04-17.08-140.13l-131.17-651.29-125.67-567.58c-3.38-15.04-10-29.38-15.08-44.04-10.96 12-11.42 21.92-9.75 31.5l81.92 466.17 112.71 621.04 44.63 236.58c6.92 35.46 17.67 69.71 54.33 111.17zm-839.63-6878.68l-87.46 22.94c-142.42 41.65-288.29 56.3-436.04 55.14-163.92-1.29-327.08-13.11-489.67-34.03-19.16-2.47-38.92-.34-78.39-.34 31.47 13.67 43.4 20.83 56.32 24.17 193.91 50.21 389.95 86.79 591.24 86.32l391.29-3.76c21.71-.29 43.38-3.87 65.54-5.98 10.92-48.83-2.92-90.9-12.83-144.46zM6402.42 4538.8c-16.96-31.58-32.21-64.21-51.17-94.54-66.75-106.83-111.67-222.88-148.83-342.45-73.58-236.52-115.25-479.63-151.54-724-11.75-79.08-15.54-159.7-38.79-238.69-35.08 6.26-66.58 13.98-94.25 37.86 2.5 17.68 3.75 34 7.17 49.84l44.79 203.03c34.63 174.08 66.17 348.82 115.92 519.5 53.08 182.15 125.08 355.78 232.58 513.23 21.46 31.42 40.92 64.79 84.13 76.21zm-658.54-2343.14c-124.71 3.24-225.5 52.75-291.83 160.33-99.08 160.66-59.42 369.16 89 485.57 65.38 51.29 139.75 78.08 222.21 83.11 141.63 8.66 249.42-49.64 315.21-173.74 142.08-267.83-67.42-564.69-334.58-555.27zm733.42 10679.69l-39.83 33.96c-154.04 145.08-264.83 319.96-349.75 512.13-81.46 184.29-129.42 378-147.83 578.04-21.79 236.88-10.96 471.38 72.88 697.88 26.96 72.79 51.21 146.58 76.71 219.96l38.29 110c58.33 169.71 87.29 343.71 78.29 523.58-.88 16.88-12.33 38.92 15.63 52.54 8.58-9.63 18.63-18.92 26.38-29.83 32.25-45.13 65.13-89.96 95.46-136.38 234.21-358.58 390.5-745.96 432.42-1175.33 22.63-231.88 6.21-459.67-67.21-682.33l-207.46-641.17c-5.92-18.29-13.63-36-23.96-63.04zM3630 7289.84c137.35 29.88 242.12 107.33 319.55 222.46 78.99 117.46 188.97 193.75 317.83 245.92 47.92 19.42 93.67 44.88 146.29 59.63-7-49.38-7.33-49.17-48.25-113.83l-69.04-113.92c-20.63-36.17-39.29-73.46-58.83-110.25l-62.5-117.67c-19.87-36.17-40.81-71.75-62.91-110.46 27.08-25.83 57.41-35.29 88.08-40 28.46 12.38 35.33 38.17 45.5 60.04 144.88 311.71 334.83 594.46 548.79 862.33l315.13 409.25c52.79 71.21 99.92 146.96 145.67 223.04l464.58 780.13c56.38 95.63 108.42 193.83 162.58 290.75l110.33 195.96c6.33 11.13 15.29 20.79 33.54 27.38-3.46-31.67-5.71-63.58-10.67-95.04-24.71-156.33-51.13-312.46-61.63-470.54-3.67-55.08-27.71-94.54-73.29-123.08-32.96-20.58-66.83-40.04-98.17-62.92-51.5-37.63-103.46-75.17-151.29-117.17-97.29-85.42-143.79-194.58-143.96-324.38-.08-106.08 14.04-210.63 33.71-314.29 39.38-207.67 99.54-409.75 169.58-609 3.63-10.25 9.79-19.58 17.67-34.92 12.75 15.25 24.13 26.17 32.33 39.13l310.71 493.5c55.67 89.75 104.54 183.25 139.75 283.33 24.04 68.38 41.5 138 45.08 210.92 4.13 83-13.83 161.08-56.29 231.38-32.83 54.42-69.46 107.71-111.75 154.92-31.83 35.5-38.67 70.04-31 113.79l53.21 320.38 112.5 681.96c3.5 21.04 3 43.83 26.88 61.04l45.96-257.21c71.54-373.21 198.71-727.63 365-1068.5 146.63-300.5 326.54-580.67 526.38-848.04 37.96-50.83 61.46-103.79 68.79-166.38 6.42-55.04 17.33-109.63 27.17-164.25 11.04-61.54 7.13-121.13-14.58-180.29-62.38-169.92-135.67-334.25-235.04-486.33-37.92-58.04-72.63-118.25-107.17-178.38-7.38-12.83-19.96-28.13-4-48.38 29.33 12.17 45.08 38.96 61.46 63.33 105.33 157 203.67 318 276 493.5 10.21 24.79 22.46 48.75 40.25 87.04 5.46-27.88 9.46-40.21 10.04-52.67l14.75-349.58c7.46-300.08.58-600.04-23.38-899.25-35.67-446-97.92-888.42-191.83-1326.08-32.58-151.88-68.88-302.96-104.13-454.29-4.92-21.17-13.63-41.5-22.13-66.79-21.79 19.13-22.71 40.92-27.5 61.04l-101.46 420.75c-9.33 37.38-24.71 73.29-38.63 113.71-23.38 1.13-45.21 4.75-66.58 2.88-248.42-21.63-478.42-96.38-680.92-244.83-216.5-158.71-358.21-368.21-420.79-630.58-10.75-45.13-13.13-86.92 10-128.88 7.79-14.13 11.88-31.09 14.42-47.27l51.21-328.89c18.79-106.55 38.67-213.16 64.54-318.15 21.17-85.95 51.79-169.59 78.42-254.19 4.88-15.45 10.67-30.61 17.83-51.01-30.29-11.72-57.63-4.75-83.88-6.05-30.5-1.51-61.21-.8-91.54-3.63-27.5-2.57-54.79-7.95-81.96-13.3-26.92-5.31-53.54-12.14-83.88-19.13-5.67 9.94-13.5 18.45-15.67 28.2-52.33 239.1-124.83 472.09-211.46 700.83-1.83 4.88-2.04 10.39-3.42 17.6 17.83 4.85 22.67-10.12 27.63-19.96 33.88-66.76 69-133 99.38-201.33l178.58-412.63c7.5-17.34 17.38-33.65 27.96-53.86 20.08 51.45 39.33 96.74 54.96 143.25 5 14.82 2.04 33.04.04 49.37l-92.38 743.9c-4.58 37.72-19.13 68.43-43.42 96.68-69.21 80.67-147.58 150.92-236.54 208.88-206.67 134.63-432.67 212.58-679.46 226.33-131.25 7.29-259.54-11-388.58-49.92l-6.21-119.75c-35.79-1.46-57.58 22.75-82.17 38.17-38.5 24.17-79.19 40-124.1 45.04-65.57 7.38-97.12-11.33-126.42-70.67-20.74-41.96-24.51-86.75-15.43-130.21 30.92-147.96 28.48-298.15 35.71-447.82 15.62-323.43 162.59-578.57 414.66-774.2 143.33-111.24 307.5-163.4 491.46-140.91 55.13 6.74 110.58 11.1 165.96 14.8 106.17 7.1 210.38-7 319.13-31.57-25.92-57.76-66.08-102.2-99.25-151.38-56.83-3.64-107.21 13.21-155.13 33.99-111.5 48.37-227.54 70.53-348.46 70.43-59.21-.05-115.5 13.83-170.08 35.71-7.75 3.1-15.88 5.5-23.08 9.54-195.25 109.43-402.36 90.58-608.83 50.34-205.91-40.13-374.78-149.34-515.71-302.73-110.65-120.43-194.7-256.11-233.12-417.06-1.89-7.93-1.76-16.35-2.79-26.82 28.75-32.2 70.98-40.1 108.64-55.76 35.49-14.75 72.2-26.57 118.75-43.44l-46.53-29.72c-41.47-27.54-84.09-53.57-123.64-83.65-16.93-12.88-29.34-33.16-40.2-52.14-10.11-17.68-9.25-37.93 4.23-54.92 13.78-17.35 27.02-35.66 43.39-50.33 164.05-147.02 337.86-280.18 540.75-370.38 202.03-89.82 413.44-127.3 633.77-104.48 184.71 19.14 348.67 87.48 486 215.61 85.96 80.15 160.04 169.97 221.83 269.38 48.29 77.74 91.42 158.68 137.17 238.02 9.33 16.2 20.08 31.58 35.08 54.97l76.75-121.3c-11.67-12.56-21.29-25.5-33.33-35.44-73.46-60.5-134.67-132.38-192.25-207.36-83-108.14-169.17-213.08-274-301.49-54-45.5-91.96-103.34-119.04-168.59-71.21-171.48-112.13-348.28-99.46-535.49 6.83-100.42 26.58-198.14 57.79-293.36 51.46-156.87 126.63-301.94 225.92-433.93 24.96-33.16 53.46-63.89 82.42-93.72 23.04-23.73 48.5-45.56 79.92-53.16l287.79 154.95 7.29-72.73c27.83-21.73 56.25-15.35 83.25-12.39 103.13 11.33 201.88 38.75 293.29 88.29 227 123.03 397.54 299.9 504.21 536.12 15.92 35.28 28.67 72.32 39.54 109.52 35.58 121.8 30.38 241.41-23.88 357.44l-53.5 112.85-264.08 538.35c-21.58 44.47-45.21 88.91-49.58 144.42l57.79 29.4c7.17-14.67 13.75-23.98 16.42-34.31 33.63-129.98 90.92-250.11 151.83-368.82l123.63-245.43c31.33-67.88 55.42-139.06 84.29-208.12 9.42-22.53 19.58-47.33 36.54-63.72 122.29-118.11 252.42-226.42 406.75-301.18 207.04-100.3 424.79-121.7 649.83-83.79 19 3.2 37.79 9.32 55.79 16.34 15.21 5.94 29.13 15.15 47.96 25.25l-29.54 74.15c13.29 18.45 30.46 10.16 46.04 9.45 63.67-2.87 127.38-8.3 191-8 29.88.14 60.5 8.48 89.25 17.83 43.04 13.99 52.54 29.13 50.29 74.06-3.33 67.17-20.67 131.4-44.88 193.87l-35.71 91.35c29.83-5.2 53.21-10.82 76.92-13.01 28.29-2.61 48.04 13.79 51.33 42.71 2.46 21.95 3.25 44.53 1.17 66.48-15.25 160.66-38.88 319.82-95.33 472.08-120.71 325.35-333.42 566.76-653 708.39-135.96 60.25-279.46 90.14-428.25 95.13-110.29 3.7-215.13-16.83-315.63-62.68-31.88-14.55-63.13-33.7-102.54-36.75-2.63 18.46-6.33 31.98-6.08 45.43.58 33.09 3 66.15 4.54 97.06 65.42 29.92 237.25 43.74 372.42 33.55 127.79-9.63 253.38-30.1 376.29-67.13 120.63-36.33 228.17-100.22 341.13-162.25 37.17 19.09 74.75 36.4 110.38 57.09 101.67 59.05 190.08 135.19 271.25 219.48 193.38 200.88 361.25 421.55 506.38 659.55 10 16.36 17.79 34.05 26.29 50.51-5.04 9.81-7.25 18.49-12.67 23.97-137.13 138.71-283.54 266.01-452.17 365.74-96.08 56.81-196.29 103.99-306.17 127.44-215.79 46.05-425 22.53-628.58-60.13-165.13-67.04-305-169.56-425.13-300.31-79.29-86.32-145.33-182.31-205.92-282.18-7.71-12.67-23.13-25.5-11.21-49.38l65.63 46.62c118.33 88.4 242.88 166.3 379.96 222.46 108.71 44.51 220.83 74.77 339.33 75.41 14.96.08 29.96-3 45.79-10.11-178.71-53.99-352.88-115.45-512.88-211.58-158.54-95.25-296.13-214.95-417.83-360.46-41.46 29.65-67.96 67.13-95.88 103.05 3.38 10.02 4.58 18.63 8.83 25.28 95.79 149.78 191.88 299.32 308.13 434.61 136.29 158.6 296.75 283.53 494.88 356.02l104.04 36.69c9 79.59-.08 156.57-5.54 233.68l-11.75 216.11c-.63 27.04 3.58 56.08 13.38 81.17 70.79 181.63 115.25 370.96 165.54 558.54 84.88 316.58 154.08 636.71 201.58 961.08 26.17 178.58 47.92 357.79 57.33 538.25 1.88 35.63 6.67 71.13 11.13 117.21 59.33-50.46 89.25-110.21 130.25-160.58l118.71-150.29 133.21-162.79c0 19.75 3.38 30.67-.54 37.25-22.79 38.04-45.42 76.46-71.54 112.25l-189.71 253.46c-29.71 40.17-56.79 82.25-86.13 122.67-25.75 35.58-36.13 74.46-29.88 117.79 18.42 127.08 11.46 255.08 11.54 382.67.17 225.17-15.58 449.54-40.88 673.25-4 35.58-5.96 71.42-8.71 105 21.42 11.75 29.42-2.08 38.08-11.38l249.58-268.63c222.67-248.63 463.21-479.13 708.04-705.5l760.17-712.08c171.88-165.71 334.75-340.75 501.54-511.71 39.38-40.38 65.63-86.58 81.46-142.38 23.46-82.63 56.5-162.38 70.54-247.88 18.5-112.79 26.58-225.71 18.71-340.13-14.88-216.63-51.88-430.33-96.92-641.83-32.29-151.42-82.88-299.49-132.5-446.62l-528.29-1605.43c-6.38-20.63-14-40.86-24.08-70.18-15.29 30.61-7.42 51.12-3.13 71.05 39.5 184.78 91.75 366.16 150.92 545.42L9707.76 4376c8.63 26 15.92 52.5 25.33 83.75-17.29 2.33-30.13 6.04-42.79 5.5-131.13-5.63-259.5-26.83-383.33-71.25-211.21-75.75-355.54-221.25-441.71-426.39-52.33-124.49-73.63-255.55-79.46-389.62-8.42-192.68 12.71-383.07 52.08-571.04l147.58-658c14.17-61.12 29.88-122.58 61.38-183.23 12.17 7.56 22.38 11.72 29.75 18.81 230.38 221.14 472.96 429.71 688.25 666.43 97.46 107.12 186.46 220.55 259.17 346.17 81.75 141.2 136.38 291.64 149.96 455.03 16.13 194.43-20.75 377.22-137.92 536.35-55.71 75.71-122.5 143.29-184.63 214.25-14.46 16.54-30.25 31.92-48.21 50.67l55.96 251.21c45.33 190.75 61.46 383.67 42.54 578.88-6.38 66-17.54 131.5-26.75 198.79 27.42 0 35.75-23.42 48.75-38.75 185.5-218.25 355.58-448.04 512.83-687.42 163.29-248.5 312.75-505.17 451.79-767.96 10.33-19.51 19.96-39.37 28.75-56.73-2.71-8.66-2.88-15.14-6.17-18.83-98.21-110.17-140.29-243.27-161.13-386.02-23.63-161.88-4.46-321.32 22.83-480.5 3.71-21.64 11.5-42.57 20.29-74.13 11.04 18.72 19.04 28.79 23.38 40.26 23.42 62.24 41.25 127.08 70 186.67 31.33 64.89 42.67 131.11 40.71 201.55-1.04 38.69-.17 77.44-.17 126.98 10.13-21.34 17.42-34.14 22.46-47.76 11.63-31.09 19-64.15 33.71-93.6 42.58-85.38 124.42-128.99 218.92-120.38 77.88 7.08 128.25 50.1 146.08 126 5.5 23.36 8.75 47.25 12.88 70 30.5 5.14 45.21-15.3 63.92-25.22 30.04-15.94 61.25-25.98 95.29-26.57 54.29-.95 90.42 22.89 106.63 74.87 18.42 59.03 11.33 115.22-27.08 165.69-41.08 53.95-94.04 94-150.79 129.64-20.83 13.1-42.17 25.5-60.71 46.45 11.75-1.66 23.71-2.42 35.17-5.11 132.92-31.13 260.04-79.12 385.79-131.3 22.17-9.2 44.96-16.9 75.25-28.21-43 63.54-132.92 137.07-239.13 199.51-86.75 51.03-179.08 88.25-276.83 112.23-100.46 24.64-203.25 25.08-305.5 25.26-7.38 12.76-13.71 21.73-18.13 31.57-78.33 175.44-175.79 340.28-278.25 502.32-206.42 326.42-420.21 647.92-664.08 947.92-87.54 107.71-181.75 210-273.54 314.21l-304 343c-17.96 20.29-34.67 41.75-63.83 77.08 135.58-43.46 252.17-86.17 376-103.63 124.63-17.58 248.63-13.46 372.29 2.17 8.08-13.83 14.58-22.71 18.88-32.58 77.42-178.83 211.92-303.42 379.83-394.33 125.96-68.25 262.33-107.42 404.42-121.17 537.21-51.96 1009 103.17 1416.13 455.75 67.13 58.13 129.08 122.17 193.46 183.46l289.67 275.58c33.79 32.29 71.67 61.13 96.17 104.83-19.29 27.63-48.17 38.96-73.75 53.71-195.25 112.71-401.21 202.92-609.63 287.58-188 76.33-380.33 139.75-579.58 180.42-289.42 59.08-577.88 64.96-867.21-5.21-138.88-33.71-248.92-104.96-335.96-216.04-120.67-154.08-217.04-322.13-289.88-503.67l-59.71-155.42c-3.67-9.79-4.5-20.67-7.75-36.58 16.58-2.96 29.21-6.79 41.92-7.21 136.13-4.71 272.17-5.58 407.83 9.29l455.25 49.92c217.83 27.96 430.71 81.17 643.96 132.33 250.96 60.21 501.29 123.88 756.33 165 120.54 19.46 241.79 34.5 362.88 50 26.71 3.42 54.25.5 80.33.5 4.88-20.67-7.29-21.17-17.63-22.17-305.08-29.21-601.96-99.79-897.42-177.92-273.67-72.33-546.96-146.29-825.08-200.42-177.38-34.5-356.21-57.25-536.5-69.71-144.79-9.96-288.5 1.79-432.29 16.63-57.92 5.96-116.08 11.21-174.25 12.71-342.13 8.75-638.63 127.88-889.29 361.71l-847.96 788.92c-283.25 266.88-553.5 546.42-801.5 846.75-250.04 302.83-474.42 622.83-650.75 974.96-190.33 380.17-321.5 779.58-387.79 1199.54-37.33 236.46-48.5 474.96-44.25 714.29 8.67 483.79 96.58 954.88 229.67 1418.21 54.38 189.33 117.04 376.25 177.71 563.75 15.96 49.29 31.5 99.67 61.25 142.25 26.67-2.71 23.71-23.96 28-37.25 54.33-167.29 133.13-323.29 220.75-474.88 21.21-36.71 26.21-70.13 16.79-110.42-41.08-176.58-58.83-356.13-58.92-537.08-.29-440.63 113.88-850.38 337.83-1229.58 29.63-50.17 61.83-98.83 93.25-147.96 2.63-4.17 8.46-6.29 12.83-9.33 48.38 29.75 219.13 202.17 275.79 279.83-132.33 233.83-218.33 486.83-262.08 753.83 52.88 64.38 131.92 87.83 191.5 144.29-11.33 16.38-20.83 32.42-32.58 46.63-79.67 96.25-162.71 189.92-238.88 288.83-57.46 74.63-109.25 154.08-157.83 234.83-31.21 51.92-54.25 109.25-76.83 165.79-20.67 51.79-30.67 106.71-26.88 163.17 5.08 76-8 149.17-31.88 221.08l-91.54 285.42c-20.29 69.08-35 139.79-51.88 209.88-11.29 46.96-8.92 93.63 4 140.04 8.17 29.42 14.42 59.38 23.25 88.54 29.13 96.38 42.21 195.21 46.92 295.38 17.88 379-62.67 739.25-208.75 1086.75-103.75 246.92-237.75 476.75-394.67 693.5l-54.25 74c16.96-1.75 25.13-.29 30.46-3.5 402.13-241.75 810.42-473.54 1200.21-735.33 152.5-102.42 295.54-216.79 424.71-348 205.58-208.92 346.71-453.08 407.75-741.29 6.92-32.5 12.5-65.46 16.46-98.46 9.25-77.46-26.21-132.88-101.46-159.33l-235.88-81.92c-214.46-81.54-411.63-193.75-588.67-340.33-122.96-101.79-226.04-221.21-312.71-355.04-6.04-9.29-11.25-19.17-17.54-28.33-43.83-63.96-50.83-126.42-20.25-202.75 57.17-142.83 127.5-277.17 214.71-403.29 91.83-132.79 195.75-255.75 304.92-374.42 9.21-10.04 19.83-18.79 33.04-31.13 17.04 10.58 33.46 19.92 48.92 30.58l184.88 128c26.58 17.83 43.42 39.75 54.04 70.58 122.54 355.04 216.29 717.38 276.54 1088.13l53.33 362.54c8.54 62.21 42.25 100.75 101.21 118.54 4.63 1.38 10.54-1.58 15.88-2.54 7.08-97.92-51.58-495.58-108.83-789-50.58-259.25-136.21-508.54-212.04-768.71 22.5 1.21 38.42-.33 53.04 3.21 146.25 35.46 293.96 58.38 444.88 58.29 166.08-.04 325.46-31.75 477.54-99.04l39.21-16.46c6.17 6.83 15.04 12.08 16.21 18.67 18.96 109.33 40.33 218.25 41.71 330 2.21 178.33-40.13 346.54-111.29 508.5-63.04 143.38-147.21 273.83-247.04 394-54.96 66.21-114.33 128.71-170.71 193.79l-150.67 177.92c-47.71 54.08-62.79 115.08-50.08 185.21 11.46 63.42 6.33 127.04.71 190.92-10.92 123.5-43.75 239.88-103.54 348.63-3.96 7.25-6.58 15.25-9.83 22.96 10.88 17.21 23.42 8.29 34.63 1.79 60.08-34.75 121.46-67.54 179.5-105.46l1389.08-935c42.88-30.29 84.67-62.92 140.58-76.96l77.38 64.17c17.42-9.33 35-17.08 50.75-27.54l303.79-204.88c130.71-95.33 249.83-203.42 334.96-343.96 13.13-21.71 30.67-38.29 56.67-46.08 122.17-36.58 225.08-107.88 322.04-187.13 79.46-65 153.96-136 230.5-204.5 18.46-16.5 36.38-33.63 56.13-51.88 121.67 32.79 241.29 74.21 366.67 75.88 120.33 1.58 240.79-9.04 361.88-14.33-4.46 23.08-24.67 23.63-38 30.17-174.54 85.38-347.21 174.58-527.79 247.21-243.25 97.83-469.08 228.92-687.04 372.96-182.96 120.88-363.13 246.38-539.79 376.29-246.38 181.13-500.71 349.71-760.5 510.79-129.75 80.42-255.38 167.46-382.46 252.17-22.29 14.88-42.38 33.13-72.67 57.04 20.92-.96 29.29.25 36.63-1.92 162.71-48.21 329.92-75.58 496.04-107.92l293.88-58.92c29.83-5.71 60.5-8.75 90.88-9.88 44.38-1.63 44.54-.33 70.08 52.38-75.63 76.83-143.92 104.75-423.79 173.38-3.58 14.13 4.88 19.29 16.5 21.5 85.46 16.29 164.83 48.08 239.58 92.42 32.96 19.54 54.33 44.04 60.21 84.04 6 41 19.54 80.88 27.83 121.67 3.04 14.92.5 31 .5 52.67l-78.42-39.54c-187.96-98.17-383.63-174.96-592.21-216.88-109.5-22-219.96-29.21-331.42-25.71-60.29 1.88-114.46 20.46-163 55.54-24.75 17.92-48.58 37-72.79 55.71-257.63 199.17-529.96 375.63-816.58 530.08l-109.75 59.71c-272.75 139-528 306.79-783.67 473.92-18.58 12.13-36.58 25.17-54.29 38.5-3.96 2.96-5.67 8.92-11.75 19.13 16.13-1.46 29-.63 40.67-3.96 195.21-56.04 393.88-95.96 595.17-120.71 226.25-27.75 453.38-40.5 681.71-31.46 295.17 11.75 586.04 51.33 872.71 122.42 327.5 81.25 641.17 199.5 939.71 356.58 75.79 39.88 146.92 88.71 223.46 135.42-3.08 29.88-4.46 57.25-8.83 84.13-27.38 168.17-37.63 336.71-11.25 505.92 8.46 54.33 19.54 108.21 29.42 162.38-204.88 28.29-748.88-180.25-1075.08-409.63-323.13-227.29-564.04-523.42-733.88-880.13-28.63-1.5-53.08-3.67-77.54-3.83-275.17-1.71-549.79 10.71-823.67 37.38-254.67 24.79-505.54 71.92-753.79 133.25-86.96 21.5-167 58.54-241.71 108.79l-796.58 532.29c-53.67 35.67-101.33 76.5-142.38 126.71l-314.63 377.75c-15.67 18.83-30.08 38.75-49.13 63.46 53.96 23.63 107.92 20.79 157.17 36.38 50.08 15.92 101.13 28.92 155.83 44.38 13.75-9.67 29.96-19.75 44.75-31.63l155.17-126.13c234.33-186.04 503.38-289.17 796.96-334.58 416.21-64.38 778.71 62.13 1105.54 311.83 242.04 184.88 411.67 425.54 531.33 703.54 73.83 171.58 122.42 350.79 164.96 532.08l115.83 477.29c71.92 276.21 201.42 522.17 394.75 733.5 20.29 22.21 38.75 46.08 62.75 74.83-21.46 10.75-36.88 22.25-54.08 26.5-102.29 25.33-204.17 53.46-307.67 72.29-302.08 54.92-607.33 67.79-913.13 48.96-450.58-27.75-884.46-125.29-1289-332.79-151.33-77.63-291.54-172.13-417.17-287.63-235.5-216.5-381.08-480.46-427.83-798.33-25.58-173.92-29.58-348.46-24.75-523.58l10.96-366.46c.5-16.17 3-32.25 4.75-50.33 36.96-.25 67.42 13.25 98.58 23.96 237.71 81.92 458.08 198.67 668.83 334.42 325.58 209.71 623.25 454.79 908.5 716l559.67 499.04a3118 3118 0 0 0 727.25 466.04c41.54 19.17 82.17 42.88 148.08 45.58-26.96-19.04-39.5-28.79-52.96-37.21l-219.42-136.13c-221.04-135.5-425.08-293.29-614.33-470.13l-405.71-383.58c-280.54-266.17-574.96-515.29-897.58-729.67-194.58-129.29-396.17-246.54-609.21-342.54-67.96-30.63-139.75-54.17-211.58-74.46-122.04-34.5-241.83-20.13-358.38 28.25-93.33 38.75-176.71 93.54-253.08 158.63-48.58 41.38-95.92 84.71-139.79 130.96-331.04 348.63-608.92 734.96-824.54 1165.5-115 229.63-195.96 471.17-259.88 719.04l-31.74 120.79c-4.34 16.04-8.7 32.21-15.12 47.46-18.93 44.96-37.96 53.58-85.2 40.5-128.73-35.67-214.91-151.04-211.24-285.42 1.75-64.17 14.83-126.58 35.18-187.63 54.53-163.58 122.08-321.63 199.67-475.58 257.58-511.13 578.29-979.71 949.96-1414.33 142.71-166.88 292.96-326.54 446.33-483.63a5756.8 5756.8 0 0 0 274.38-302.04c137.42-162.38 222.08-351.25 260.46-560.13 19.58-106.79 28-214.04 12.71-323.13-17.75-127-64.79-240.42-140.13-343.08-69.71-95-156.08-172.88-250.42-242.5-127.92-94.42-267.29-169.38-409.13-239.83l-442.25-214.13c-35.33-16.63-57.29-37.63-70.54-75.04-25.04-70.63-57.25-138.5-99-201.38-4.13-6.25-5.33-14.46-9.21-25.58 26.5-6.83 44.5 9.08 62.88 18.13l612.25 302.54 485.21 240.08c24.29 12 49.58 22.04 80.63 35.75-1.08-18.13-1.08-28.67-2.46-39.04-8.75-66.04-19.67-131.79-26.5-198-24.75-238.96 4.33-470.83 94.46-694.33 21.88-54.29 39.33-109.63 35.33-169.67-2.5-37.42 13.5-70.08 29.17-102.92 118.83-249.17 290.04-452.33 525.04-599.79 4.54-2.83 7.92-7.58 15.63-15.13-1.42-12.79-1.79-28.96-5.13-44.54l-277.63-1302.96c-12.21-57.25-29.17-112.83-59.04-163.75l-207.08-351.54c-106.58-167.71-234.88-316.58-401.83-428.54-6.08-4.08-9.88-11.67-17.13-20.58 30.92-13.38 57.04-4.08 82.46 4.17 58.58 19.04 111.67 49 161.58 84.88 95.5 68.75 175.58 153.42 249.13 244.33 40.17 49.58 77.13 101.79 115.75 152.63 7.88 10.33 16.83 19.79 33.42 39.17 1.58-22.83 3.79-32.71 2.67-42.25l-25.46-215.04c-5.79-52.38-11.21-104.88-14.71-157.46-5.63-84.13-24.88-163.71-63.08-239.71-42.38-84.25-79.29-171.21-119.54-256.54-24.88-52.67-50.17-105.25-77.63-156.58-37.42-70-90.21-125.71-159.58-165.96-33.5-19.46-64.71-42.92-96.5-65.21-3.92-2.75-5.21-9.29-10.17-18.75 22.17-10.71 41.38 3.58 60.5 6.33 18.75 2.67 37.13 8.17 56.67 12.67-6.96-39.58-6.92-39.58-28.58-73l-50.13-76.71-49.46-70.38c-19.42 20.04-12.17 39.83-13.04 57.29-.92 19.21-.21 38.5-.21 56.42-29 13.5-46.25-5.08-63.17-16.17l-402.38-267.33-613-431.75c-59.08-41.17-122.96-75.38-184.46-113.08-16.21-9.92-33.79-14.13-67.04-28.88 18.25 20.83 22.46 27.79 28.54 32.21l619.92 450.58c198.88 146.96 398.38 292.71 612.79 416.67 9.33 5.42 17.67 12.58 25.92 18.5-2.92 23-21.88 24.46-34.88 31.42-108.75 57.92-222.71 101.83-346.75 109.92-265.67 17.29-480.46-72.17-617.79-309.58-38.71-66.92-70.13-139.04-96.54-211.79-62.75-172.88-135.42-340.42-237.5-494.17-9.18-13.79-16.39-28.96-23.65-43.92-2.26-4.67-1.71-10.67-3.2-21.67 45.65-3.92 91.48-13.33 136.57-10.67 171.88 10.04 343.29 25.88 510.92 68.67 169.38 43.21 323.04 117.33 455.71 232.67 22.96 19.92 46.92 38.71 70.33 58 16.58-16.63 3.21-27.75-3.21-37.63l-92.83-138.33-499.71-697.63c-65.21-91.21-143.67-168.92-232.79-236.67-115.13-87.54-233.71-169.54-363.34-234.67-22.3-11.21-44.89-22.63-64.89-37.29-15.2-11.17-30.9-25.5-38.85-42.04-75.44-157.08-203.3-260.67-349.08-346.46-14.33-8.42-29.83-15.21-42.92-25.21-3.94-3.04-1.55-14.29-2.07-21.79l-.53-.71z"/><path d="M2594.59 12688.76c6.72 38 9.21 77.33 20.89 113.71 50.98 158.92 163.25 253.04 321.81 295.71 72.8 19.58 142.25 9.54 210.73-21 144.33-64.38 224.66-176.29 248.81-330.21 31.6-201.38-111.86-464.71-407.4-459.46-213.65 3.75-386.11 183.38-394.84 401.25zm29.75-1062.79l7.41-17.83-2.74-1.13-4.94 18.71c30.64 54.83 47.48 113.79 58.61 176.17-32.53.29-44.38-38.63-83.28-28.17 72.58 87.88 142.55 169.71 225.43 239.46 11.98 10.08 28.73 17.83 44.15 19.83 43.95 5.58 88.31 8.88 132.6 10.42 14.96.5 30.2-7 50.9-12.29l-60.81-133.29c-58.45-129.17-108.98-261.21-133.86-401.42-24.73-139.38-43.06-279.63-47.03-421.42-1.32-47.13-4.45-94.25-7.88-141.29-.77-10.5-6.24-20.63-9.55-30.96-15.54 87.21-17.08 172.88-15.25 258.5 1.9 88.75 2.55 177.79 10.93 266.04 8.11 85.38 21.47 170.75 39.7 254.54 18.65 85.71 46.03 169.46 72.55 264.75-24.59-14.79-43.59-21.04-54.98-33.96-38.34-43.58-76.74-87.63-109.81-135.17-29.96-43.08-53.27-90.79-78.89-136.83-7.9-14.17-17.82-20.04-33.25-14.67zm-1088.24 587.58c5.56 8.5 9.16 20.13 16.98 24.96 149.5 92.83 305.8 169.29 481.38 199.79 126.94 22.04 254.1 14.83 382.84 10.54 38.8-57.67 63.82-118.96 92.67-181.67-26.03-66.75-74.96-121.54-105.75-184.92 11.3-17.33 20.97-5.46 27.36.04l145.45 128c36-26.58 58.76-64.46 82.74-101.21 15.1-23.17 12.19-48.17 4.48-72.33-16.84-52.88-33.32-105.96-53.24-157.67-17.93-46.58-37.8-92.75-61.11-136.79l-249.19-461.63c-36.55-65.13-82.02-125.33-124.19-187.25-8.41-12.33-20.23-22.38-34.8-30.58 11.52 52.25 45.17 92.96 67.95 138.96l74.21 149.04 68.87 142.46 64.05 144.63c20.14 48.71 38.29 98.25 56.92 147.58 19.6 51.92 39.82 103.63 57.77 156.13 16.75 49 39.52 96.21 52.93 157.67-20.7-7.83-33.36-10.38-43.6-16.83-98.68-62-198.62-122.21-294.88-187.79-103.23-70.33-202.28-146.79-304.28-218.92-90.17-63.79-161.42-143.58-214.17-240.38-136.89-251.25-220.01-515.83-193.02-805.71 23-246.96 124.3-458.63 299.86-634.08 43.53-43.5 93.5-78.58 150.37-102.96 107.57-46.08 259.72-20.21 341.24 61.88 26.42 26.58 44.35 61.63 66.43 93.21 17.25-7.42 10.23-23.08 12.19-35 3.6-21.88 5.51-44.04 8.55-66 11.95-86.63 43.15-122.83 149.05-112.54 54.59 5.29 109.38 20.29 161.38 38.58 221.6 77.96 395.89 220.75 539.2 403.75 122.83 156.88 191.36 337.08 221.3 532.38 10.49 68.42 13.88 137.96 19.54 207.08 3.26 39.79-6.1 76.92-26.55 111.58-97.62 165.58-170.88 342.33-241.37 520.63-50.99 128.96-107.38 255.79-161.16 383.67-3.16 7.5-4.5 15.79-6.53 23.17 14.19 27.96 40.41 36.67 64.7 49.58 25.32-17.46 29.05-43.17 37.79-65.46l279-713.38c16.2-41.33 33-82.46 51.13-123 147.1-328.83 387.73-564.38 715.25-711.38 112.29-50.42 229.67-82.75 354.88-77.42 59.08 2.5 115.71 15.08 168.92 40.17 22.29 10.54 43.04 25.25 62.38 40.75 20.25 16.25 24 36.21 10.46 59.38-16.71 28.63-36.71 55.33-55.46 83.08 13.38 17 23.17 1.96 33.25-4.08 49.88-29.92 97.46-64.46 149.67-89.5 114.13-54.71 226.71-37.71 336.04 18.29 47.58 24.33 76.92 62.21 86.96 115.08 52.08 273.08 67.25 546.46-12.04 816.71-112.67 383.79-337.29 684.83-683.75 888.71-227.13 133.67-473.96 184.96-736.55 154.83-55.1-6.29-110.01-14.75-164.7-24.04-20.95-3.58-41.01-12.38-68-20.79 13.47-17.67 22.1-31.33 32.97-42.92 114.2-121.58 232.43-238.58 366.53-338.92 115.62-86.5 228.95-176.04 342.95-264.67 21.13-16.42 40.67-34.75 55.29-62.04-9.5 2.75-20.08 3.71-28.29 8.63-30.88 18.63-61.04 38.42-91.33 58l-237.84 153.67c-159.38 101.67-336.64 155.75-519.78 193.83l-81.58 16.21c-4.99.92-10.62-1.75-21.28-3.75 5.43-9.83 8.38-19.83 14.87-26.25 101.54-100.71 180.92-217.63 249.98-341.88 85.08-153.04 156.45-312.67 223.1-474.42 8.08-19.58 13.05-40.46 9.03-65.42l-44.57 76.75-222.17 381.33c-116.17 191.17-257.31 361.88-428.93 506.46-10.55 8.88-20.04 19.04-29.7 28.92-1.65 1.67-1.71 4.96-2.81 8.42 4.5 18.21 21.07 13.46 33.11 14.71 123.6 12.67 243.57-4.96 360.68-44.96l117.02-40.04c13.21 20.5-2.56 27.83-10.9 35.58l-165.81 152c-36.7 33.71-73.79 67.17-98.45 117.38 8.84 6.96 15.77 16.13 24.68 18.88 262.39 80.21 527.92 100.71 797.32 39.33 31.63-7.21 62.67-17.29 106.75-29.58-13.29 23-18.88 34.67-26.21 45.08-151.92 216.38-363.35 338.42-619.81 385.42-78.85 14.46-159.63 18.54-239.58 26.79-30.33 3.13-61.04 3.13-91.13 7.58-19.61 2.92-36.79 12.96-39.28 36.83 11.29 25.29 36.47 32.42 58.48 43.33l328.41 161.96c136.56 68.42 273.86 134.88 419.75 181.83 141.13 45.38 285.29 70.75 433.71 71.04 47 .08 92.96-6 150.46-19.96-35.96-16.13-62.54-11.63-87.88-12.83-111.04-5.42-221.63-14.46-330.5-38.33-131.04-28.75-255.38-76.46-373.16-139.71-112.45-60.42-222.45-125.38-333.33-188.71-9.2-5.25-16.88-13.17-27.42-21.54 21.45-22.54 47.15-19.79 70.39-23.04 90.98-12.83 179.72-33.96 266.03-65.96 176.92-65.63 319.88-176 433.33-325.75 16.75-22.13 33.88-44.21 48.21-67.88 73.96-122.42 193-188.54 313.21-253.54 24.33-13.13 48.67-7.92 72.83-.92 117.79 34.17 231 79 335.04 145.13 99.04 62.96 187.92 137.79 265.96 225.58 83.38 93.79 156.88 194.92 215.75 305.54 49.5 93.04 93.79 188.92 138.92 284.25 13.96 29.46 27.58 60.54 17.25 92.92-41.29 21.92-70.96-12.04-105.25-14.13-15.17 15.75.92 25.33 6.71 36.08 17 31.75 36.25 62.38 52.08 94.71 31 63.17 25 125.13-17.33 180.38-26.79 34.96-56.92 68.79-90.96 96.54-127.25 103.67-272.5 169.88-434.42 198.92-186.38 33.42-370.83 17.38-553.58-24.71-83.75-19.29-166.33-43.83-249.17-67-168.21-47.13-316.92-132.75-456.64-235.04-161.93-118.54-307.27-255.58-443.58-402.5l-103.37-108.63c-21.38-21.29-45.51-39.79-71.58-62.25l-44.03 46.13c17.66 21.79 31.34 42.67 48.83 59.63 137.61 133.29 273.8 268.21 414.97 397.71 71.38 65.46 150.55 122.88 229.08 179.96 85.69 62.33 178.58 112.21 281.62 140.79 27.04 7.5 52.42 17.21 69.38 42.25 42 62.04 88.63 121.29 126.71 185.63 175.96 297.17 170.04 600.96 26.88 908.17-2.25 4.83-6.75 8.63-10.17 12.88-17.33 5.38-24.58-7.96-33.17-18.17-26.46-31.33-48.08-66.92-88-104.33 1.21 24.42-1.21 37.42 2.79 48.04 50.04 132.38 23.54 256.75-38.96 377.04-21.71 41.83-45.38 82.75-70.04 122.96-59.04 96.29-143.79 131.79-255.63 111.29-104.42-19.17-205.68-46.88-301.33-92.96-299.9-144.46-532.28-358.79-679.62-660.33-70.33-143.92-104.89-298-125.66-455.5-8.76-66.42-2.22-132.17 10.59-198.54 16.27-84.29 25.6-170.13 34.57-255.63l53.8-547.08c3.71-38.63 5.55-77.46 27.48-112.67 8.33.5 17.42-1.21 24.35 1.88 37.78 16.88 75.02 34.96 115.08 53.88l24.38 157.13c40.23 234.17 119.17 455.96 216.59 671.71 86.91 192.5 187.43 377.96 291.3 561.67l114.87 202.92c11.63 20.08 26.66 38.17 42.44 60.46 11.95-28.5-3.8-44.17-11.96-60.21-32.71-64.33-67.17-127.75-101.51-191.21-146.94-271.58-275.53-551.04-366.72-846.75-37.69-122.21-65.64-246.71-87.04-372.67-5.52-32.46-7.04-65.63-10.4-98.54 27.9-7.83 28.43 16.29 35.26 26.88 101.41 156.71 214.22 304.21 346.79 436 19.01 18.92 39.42 36.42 59.37 54.71 13.84-16.25 2.62-24.96-2.48-33.29-188.91-308.67-424.85-664.29-475.34-715.96l-71.82 50.92c-80.31-5.79-125.89-79.5-194.97-98.71-8.83 5.25-15.48 6.83-17.91 10.96l-138.52 237.08c-33.62 60.63-65.99 122.25-93.82 185.67-59.21 134.96-126.27 265.63-200.05 393.13-38.88 67.21-73.43 136.96-109.36 205.83-5.91 11.29-8.92 24.13-17.13 47.08 67.55-63.25 168.84-204.58 278.05-393.46 78.95-136.54 152.81-275.96 229.21-414.63 17.57 3.38 10.48 17.17 9.05 24.96-35.26 191.67-55.02 385.38-57.67 579.63-3.47 254.38-98.5 469.33-256.47 661.83-173.74 211.71-386.63 365.04-653.51 437.54-157.32 42.75-317.18 53.54-478.84 34.5-57.83-6.83-115.31-17.04-172.68-27.21-18.65-3.29-36.45-11.38-57.4-18.13 9.6-67.75 53.74-116.25 87.7-181.33-19.48 3.88-29.35 4.17-37.83 7.79-50.92 21.58-100.84 45.75-152.53 65.29-22.74 8.58-48.74 10.29-73.44 11.58-57.93 3.04-103.34-21.88-131.63-71.63-19.03-33.5-34.57-69.67-46.61-106.29-52.04-158.29-62.03-321.63-46.28-485.92 23.1-241.04 95.27-467.42 223.53-673.71 36.45-58.63 80.33-113.17 125.16-165.88 48.98-57.58 109.27-101.5 179.68-131.96l342.09-152.58c160.3-68.04 328.99-100 502.64-103.96 100.35-2.29 199.84 7.5 295 42.71 33.37 12.33 68.04 23.38 97.93 53.75-6.65 14.58-12.01 29.67-19.92 43.21-47.9 82.21-109.86 153.54-176.06 221.04l-607.95 617.42c-11.53 11.71-22.14 24.33-32.8 36.13 11.1 15.33 19.92 8.04 27.88.96l67.82-61.63 535.76-500.58c20.11-18.79 41.02-36.71 64.26-57.46 29.31 41.21.34 90.08 23.61 128.5 7.41-4.21 14.15-5.63 15.94-9.38l149.13-316.08c14.91-32.42 25.07-67 37.66-101.33-39.63-53.5-92.08-85.25-144.67-114.42-52.66-29.21-109.34-51.17-164.27-76.29-5.83-26.71 22.49-25.88 32.88-40.88l-90.77-342.58c-116.18-40.42-236.87-89.58-366.54-109.67-17.26-2.71-35.29-.38-68.39-.38 105.47 65.46 211.4 98.46 313.84 165.25-89.1 25.08-168.97 28.04-246.68 41.83-81.95 14.54-164.71 24.58-247.12 36.5l-239 34.5c-78.88 11.63-158.6 18.67-236.45 47.17 20.11 2.67 40.15 6.88 60.33 7.71 178.03 7.46 355.13-.13 531.39-28.71 123.49-20.04 247.91-31.92 373.38-21.96 16.59 1.29 33.35 1.63 49.74 4.21 35.99 5.71 61.63 23.92 70.22 66.67-23.57 50-64.26 92.29-103.33 134.25-14.58 15.67-45.05 18.38-69.05 23.08l-245.47 45.29c-117.68 24.46-227.47 71.58-334.76 124.33-59.76 29.42-119.52 59.33-176.63 93.42-84.35 50.42-175.76 69.04-271.63 64.33-405.92-19.92-736.09-190.17-991.58-505.58-40.38-49.88-72.68-104.79-94.15-165.79-20.8-59.13-25.34-119.29-13.5-180.54 18.47-95.5 90.28-148.83 186.4-136.58 29.82 3.79 58.74 14.67 88.52 21.88 11.46-.42 22.47-.42 33.48-.42l-1.43-7.5-33.64 9.67c-4.98-8.71-8.44-23.38-15.19-25.08-48.25-12.25-97.06-22.46-145.94-32.04-18.99-3.71-38.68-3.67-57.95-6.21-57.29-7.58-88.48-43.13-99.62-97.25-7.95-38.58-8.93-78.58 9.13-114.38 23.62-46.83 47.47-94.5 78.38-136.5 69.91-95 160.73-168.67 258.69-233.04 209.5-137.71 437.31-229.92 686.85-260.5 154.93-19 310.54-16.63 464.11 17.54 131.48 29.25 253.67 80.13 364.65 157.33 142.38 99.04 269.54 214 373.44 353.54 56.68 76.13 104.25 157.38 134.72 247.71 6.07 18 8.63 37.17 13.5 58.88-43.94 18.29-87.34 22.63-131.28 24.46-143.07 6-282.68-15.42-418.53-58.42-76.57-24.25-150.7-56.08-226.29-83.5-25.46-9.25-47.9-29.92-78.21-22.63l-13.08-13.04-5.37 9.17c4.43 1.75 8.74 4 13.33 5 1.91.38 4.41-1.96 6.64-3.08zm8193.95-2357.54c-13.58-17.58-21.5-28.75-30.33-39.17l-334.25-392.42c-48.92-56.54-101.21-110.17-152.75-164.42-10.08-10.58-23.63-17.92-35.58-26.75-1.96 18.63 3.46 30.21 11.67 39.25 99.46 109.04 179.46 232.33 260.46 354.88 9.13 13.83 25.83 30.83 23.13 42.79-9.25 41.13 20.5 60.17 40.42 84.42 38.67 47.13 78.71 93.17 118.79 139.13 10.21 11.67 17.25 29.17 43.13 26.21l55.33-63.92zm-405.42 1390.33c44.67-9.96 72.21-37.13 102.13-59.46a2421.4 2421.4 0 0 0 85.25-66.42c30-24.54 59.63-49.63 88.58-75.42 29-25.79 57.38-52.29 85.17-79.33 25.79-25.13 51.75-50.29 75.29-77.5 24.96-28.79 57.75-51.92 70.25-86.46-3.46-31.33-22.5-47.29-39.13-66.08-17.33-19.63-29.42-43.92-47.92-72.54l-50.08 79.75c-95.17 156.38-190.83 312.25-327.13 438.04-17.17 15.88-35.25 33.04-42.42 65.42zm1437.13-619.29c-16.21 9.75-33.33 18.54-48.75 29.75-13.75 9.96-13.75 33.58.75 43.33 18.13 12.17 37.33 24.33 57.88 31 137.17 44.5 275.08 87.08 417.38 111.75 56.42 9.75 113.38 23.88 172.54 17.58-4.58-28.29-27.63-29.04-44.46-34.92-131.5-46.08-253.79-110.46-374-180.33-52.29-30.38-110.29-51.33-166.42-74.79-10.63-4.46-24.75-.63-44.08-.63l29.17 57.25zm-176.83 835.38l14.04-7.88c-2.17-13.33-3.5-26.83-6.58-39.96l-109.04-461c-9.67-41.29-22.04-79.04-64.63-99.5-10.92-5.25-17.04-20.38-26.21-32.08-7.5 8.63-11.88 18.75-18.04 19.96-28.71 5.71-57.88 8.92-89.04 13.33 62.71 202.67 155.33 387.79 262.83 565.92 9.33 15.46 24.29 27.58 36.67 41.21zm-2025.33-223.38c75.21-11.04 143.33-40.88 209.5-74.63a4753 4753 0 0 0 528.67-314.08c105.33-72.21 205.88-150.54 297.13-240.29 13.83-13.58 30.75-25.75 39.79-42.13 13.13-23.67 23.96-49.88 28.88-76.25 3.88-20.67-1.13-44-23.63-56.42-129.17 53.67-319 181.67-357.58 243.46 32.29-10.92 60.58-21.21 89.38-29.96 27.08-8.25 52.54-25.46 95.42-20.71-267.38 269.83-581.17 449-907.54 611zm2222.09-2817.59l-7.96-2.5c-8.83 16.88-18.63 33.33-26.29 50.75l-370.25 843.71c-19.83 45.54-35.04 93.17-50.21 140.54-3.46 10.79 2.04 24.46 4.04 42.38l44.38-15.25c59.04-19.67 97.17-56.21 115.29-118.88 24.5-84.92 59.17-166.88 85.5-251.38l193.71-634.92c5.38-17.71 7.92-36.29 11.79-54.46zm-633.67 1014.21c22.96 0 48.58-5.04 70.92 1.46 21.75 6.33 40.08 24.42 63 39.33 9.08-45.54.79-83.08-7.46-121.21l-72.67-350.21c-40.21-221.13-71.21-443.63-96.13-667-1.54-13.96-5.96-27.58-13-58.96-20 347.21-2.54 982.38 55.33 1156.58zm703.21 536l28.83 39.33c14.33-6.71 24.46-10.92 34.08-16.08 169.46-90.5 325.83-199.25 470.13-326.63 128.79-113.71 262.08-222.33 393.17-333.5 4.25-3.63 5.92-10.29 14.33-25.71-21.04 9.75-31.33 13.38-40.42 18.92-94.54 57.79-190.71 113.21-282.92 174.58-138.63 92.21-279.33 180.5-427.75 256.17l-81.88 40.79c-26.46 12.29-44.33 30.79-55.38 58.46-14.25 35.75-32 70.13-52.21 113.67zm-596.29 2479.17l12.29-1.04-.04-91.25-6.42-691c-4.79-244.25-4.92-488.29 12.58-732.13 1.5-21.13-3.5-42.71-5.38-62.71-46.33-16.88-83.25-42.96-128.71-44.83-16.92 92.54-26.13 329.67-17.29 433.58 2.33 27.25 5.29 54.33 24.42 94.38 9.5-79.88 7.25-146 33.08-220.17l21.25 419.21 37.17 739.96c2.83 52.13 11.21 104 17.04 156zm400-2287.42c1.96-251.58-171.17-427.79-420.96-428.38-212.5-.46-397.54 191.21-399.33 411.75-1.92 236 199.96 415.71 411.88 417.63 195.96 1.79 408.46-167.29 408.42-401zm-2037.17-631.29l-11.79-12.04-3.17 6.29 16.46 3.63c-.21 33.71 30.13 43.83 49.46 60.96 272.04 241 596.17 377.08 944 465.08 2.25-3.92 6.75-8.42 7.33-13.42 1.33-10.75 4.88-24.38.04-32.21-15.83-25.54-32.96-50.96-53.42-72.83-26.96-28.75-46.04-36.25-85.58-44.54l28 31.75c-11.83 1.83-17.46 4.33-22.13 3.13-280.96-72.08-552.67-164.92-784.38-348.33-25.21-20-48.71-45.88-84.83-47.46zm4444.55-740.21c32.17 148.75 34.38 290.29 15.63 430.88-47.38 355.17-211.42 651.92-468 898.13-194 186.08-427.46 297.5-691.83 340.63-118.42 19.33-238 11.63-356.25-12.38-148.42-30.17-287.92-82.25-416.42-162.83-49.42-31-94.5-66.88-133.5-119.71 17.33-7.29 28.71-14.5 41.04-16.96 193.21-38.67 386.54-77.5 575.38-134.38 124.79-37.58 247.63-81.63 371.08-123.63 17.63-6.04 33.63-16.92 48.29-35.17-8.63.42-17.5-.38-25.79 1.42-27.08 5.92-54.29 11.63-80.92 19.33-256.92 74.71-519.92 115.54-785.71 140.29-69.08 6.46-138.42 10.21-207.58 15.58-13.38 1-26.58 3.75-44.13 6.33-9.42 54.75-10.71 107.25-.29 158.42 4.58 22.54 21.42 44.92 38.04 62.17 50.38 52.33 109.13 94.75 173.17 128.79 160.13 85.08 326.67 153.17 506.88 182.46 144.54 23.5 287.63 19.29 427.75-27.79 2.63-.88 5.29-1.75 7.83-2.88 51-22.08 94-13.33 137.83 23.21 133.21 111.17 251.29 235 342.96 383.13 138.21 223.33 216.63 466.54 250 726.38 17.83 138.96 8.42 277.21 3.5 415.83-.42 10.71-4.29 21.29-7.13 34.67-135 66.67-275.92 114.17-423.17 145.63-237.04 50.63-468.88 34.04-697.38-44.46-125.42-43.04-235.5-111.29-333.42-199.88-97.54-88.29-176.67-191.71-246.79-302.46-74.42-117.54-136.38-241.71-195.63-367.29l-103.04-227.54c-6.17-14-19.63-28.17-6.83-48.92 35.67 22.96 59.25 57.42 84.92 88.75 146.04 178.46 322.75 320.5 519.04 439.04 64.13 38.71 131 72.79 197.04 108.21 13.79 7.38 28.33 17.21 57.13 8.63l-90-55.21c-234.83-137.92-439.13-311.63-607.67-525.58-53.13-67.38-98.92-140.71-145.71-212.83-43.79-67.54-84.25-137.25-126.75-205.63-8.67-14-18.04-28.58-30.42-38.92-6.67-5.58-22.21-6.42-30.46-2.5-7.75 3.67-16.79 17.38-15.5 25 3.83 22.21-.13 41.83-3.67 63.79-5.58 34.29-2.25 72.38 6.96 106.17 17.5 64.13 39.17 127.42 63.88 189.17 82.58 206.42 178.25 407 287.04 600.71 48.75 86.79 109.83 166.75 166.17 249.21 15.79 23.13 30.67 44.46 30.38 75.08-2.04 208.21-36.46 408.58-134.13 595.38-67.67 129.38-155.88 242.71-259.96 344.17-135.96 132.58-290.67 239.96-448.42 336.63-37.71-1.63-62.42-21.08-88.38-36.25-266.42-155.42-451.79-381.88-573.67-662.04-74.75-171.83-115.17-353.08-134.75-539.13-2.33-22.08-3.63-44.46-8.25-66.08-6.67-31.13 4.71-52.83 27.92-72.75 159.25-137 267.96-309.71 351.04-500.21l246.79-566.54c-21.13-31.54-42.42-63.42-76.08-86.21-55.25 31-96.21 76.63-140.08 118.75-18.25 17.46-15.58 40.38-17.54 62.21-14.58 164.46-54.63 322.67-119.5 474.38-138.46 323.58-378.08 537.67-712.58 641.17-291 90.04-580.75 76.75-864.88-35.71-83.08-32.88-160.17-76.63-231.75-130-100.13-74.54-195.58-155.79-307.79-212.88-4.63-2.33-7.5-8-13.96-15.17.75-16.25-1.21-36.04 2.88-54.46 43.17-192.75 96.54-382.42 187.88-558.79 188.42-363.67 472.13-619.58 861.42-753.67 52.29-18 106.63-30.92 160.88-42.08 175.08-36 335.71 7.79 487.75 93.46 31.38 17.71 61.25 38.17 92.17 56.79 41.79 25.17 87.13 35.96 135.67 29.46 13.42-1.79 26.71-6.83 39.33-12.13 16.25-6.88 22.17-29.67 10.13-41.54-17.58-17.25-37-32.67-59.42-52.13 14.75-9.79 29.17-16.88 40.17-27.5 9.46-9.08 18.54-21.33 21.58-33.75 8.21-33.08-12.21-60.42-46.46-64.25-59.21-6.63-118-1.67-169.88 28.21-43.33 24.92-83.38 22.75-127.21 6.08-46.63-17.71-93.33-36.25-141.5-48.75-118.46-30.79-237.29-22.25-354.21 8.88-85.71 22.79-171 48.13-254.67 77.54-45.21 15.92-85.13 14.17-128.79-2.54-279.67-107-498.17-287.54-654.33-542.71-64-104.67-113.29-216.42-146.25-334.79-27.79-99.79-42.13-200.96-24.42-304.67 6.13-35.96 15-70.58 37.88-100.04 16-20.63 34.79-26.75 58.58-15.71 20 9.29 39.04 21.08 57.29 33.54 18.13 12.38 34.75 27.04 55.33 43.29 15.29-30.13-3.29-51.29-12.63-70.42-43.96-90.25-76.88-184.33-103.29-280.88-8.04-29.46-16.5-58.92-21.88-88.88-5.33-29.75-12.13-60.17 1.42-94.5 12.63-4.58 27.54-11.08 43.08-15.38 214.42-59.25 431.46-106.13 653.33-125.21 251.38-21.58 499.75-8.17 738.04 85.21 326.29 127.92 540.54 361.17 643.83 695.08 27 87.33 43.88 177.75 66.54 266.46 13.71 53.75 29.29 107 44.88 160.21 3.63 12.38 10.71 23.67 18.67 40.75 25.25-16 44.54-32.08 66.71-41.08 22.04-8.96 46.96-10.83 69.08-15.5 8.79-33.46-7.5-58-17.75-82.83L9779 9017.37c-15.21-35.71-32.75-70.5-50.58-105-38.38-74.42-83.54-144.29-144.21-202.79-28.92-27.88-49.17-59.54-54.83-100.08-13.79-98.92-33.13-197.29-41.38-296.63-15.67-189.25 21.42-370.67 100.5-542.83 135.96-295.96 345.54-527.58 619.75-701.75 7-4.42 14.67-7.92 22.17-11.5 2.46-1.17 5.38-1.33 12.71-3 67.46 49.83 122.71 115.63 170.83 186.08 46.63 68.21 85.08 142 133.71 224.54-1.25-24.29.67-37.21-2.96-48.38-12.04-36.92-26.58-73-39.13-109.75-5.38-15.67-9.29-32.38 4.5-46.71 14.04-14.58 40.38-17.21 61.54-4.04 14.04 8.71 26 20.63 39.38 30.54 8.54 6.33 17.92 11.54 31.79 20.42l70.25-99.21c28.79 16.08 55.83 29.58 81.29 45.67 136 86 245.42 198.96 333.5 332.96 123.75 188.33 197.13 395.79 242.17 615.83 93.96 459-147.33 890.33-446.13 1105.63-86.21 62.17-180.88 108-278.54 148.54-25.58 10.58-51.25 21.5-75.38 34.92-10.58 5.92-17.5 18.54-30.04 32.54l79.42 25.92 6.17 69.04c17.17 1.04 33.08 4.29 48.46 2.5 42.46-4.96 80.29-23.96 113.38-49.33 59.38-45.54 119.08-91.33 173.83-142.21 99.79-92.75 189.21-195.42 273.04-302.96 68.92-88.42 125.88-183.33 157.08-291.46 18.13-62.67 54.25-107.04 110.83-138.38 48.5-26.92 93.79-59.54 142.17-86.71 142.5-80 294.46-128.63 458.92-134.88 161.96-6.13 321.75 4.75 477.46 54.25 82.67 26.25 160.33 62.25 231.38 112.04 22.33 15.71 47.29 29.17 62.46 60.96-25.17 67.54-79.54 120.54-126 188.25 29.96.88 41.83-15.58 56.67-24.88 14.13-8.83 27.54-19 42.29-26.54 17.21-8.83 35.25-16.29 53.5-22.79 15.67-5.58 31.88-9.88 48.21-13.08 19.04-3.67 38.42-6.04 57.71-8.04 16.17-1.67 32.46-1.92 55.42-3.17z"/><path d="M15246.93 14389.47c-76.79 4.63-147.58 28.25-212.92 69.13 76-7.04 146.79-30.75 212.92-69.13zm-1742.92 1374.29c-5.83-8.92-8.54-17.92-14.46-21.42-95.25-56.13-184.13-122.92-284.54-173.92-29.63 20.13-51.21 44.21-68.71 72.58 48 35.42 125.17 69.46 244.17 103.58 38.75 11.08 77.29 31.08 123.54 19.17zm-1200.29-980.25c35-54.63 72.04-96.88 135.92-107.25-34.21-65.58-72.75-120.75-113.63-181.33l-21.67 45.88c-24.08-17.67-29.88-44.92-58.25-62 4.88 97.33 23.63 183 40.92 268.79 1.96 9.83 8.54 18.71 16.71 35.92zm723.96-160.75c76.71 34.67 113.58 37.54 188.67 2.92 49.96-23 96.71-52.96 144.29-80.88 8-4.71 12.83-14.79 24.83-29.29h-106.58c11.42-19.54 18-33.21 26.88-45.25 8.21-11.13 26.63-14.83 28.25-34.79-159.83 42.96-306.08 124.08-356.5 196.96 23.33 31.29 34.58-1.04 50.17-9.67zm-64.92 1145.21c21 35.92 38.75 58.42 69 69.67l17.38-39.13c51.88 19.13 94.92 49.58 133.71 84.29 59.67 53.42 116.75 109.83 173 166.88 40.75 41.33 78.08 86 117.71 128.46 5.83 6.25 12.75 18.92 25.54 8.71-39.75-152.75-266.25-424.71-413.83-493.67l-122.5 74.79zm-693.75-916.13c-22.08-41.46-52.92-65.63-81.08-91.29-153.38-139.83-302.08-285.21-473.88-403.42-3-2.08-9.42.88-19.33 2.13 12.08 13.92 21.5 26.54 32.63 37.38 145.54 141.17 281.88 289.79 385 466.04 18.04 30.79 43.21 55.13 75.21 74.63l81.46-85.46zm34.79 923.83c2.67 141-50.17 276.67-67.71 419.29 29.54-7.79 21.71-45.88 52.67-51.58 17.96 52.88-2.83 106.88 16.96 167.67 9.79-20.08 17.88-30.83 20.38-42.71l102.58-502.92c2.5-12.38-2.21-26.17-3.5-38.79l-131.54-45.58-21.38 69.83 31.54 24.79zm-153.63-838.25c-94-13.75-179.13-23.54-263.17-39.29-86.88-16.29-172.71-38.08-258.88-58.04-82.58-19.13-160.33-56.29-261.46-73.83 27.17 19.67 39.21 31.33 53.54 38.29 54.67 26.58 109.13 54 165.42 76.79l370.96 144.67c36.08 13.71 73.67 24.08 111.25 32.96 26.08 6.21 53.58 11.21 82.33-.92v-120.63zm1171.79 216.5c29.92-2.54 38.83-1.04 45.5-4.21l171.63-83.08a2345.4 2345.4 0 0 0 336.88-211.92c66.13-49.92 129.96-102.88 194.75-154.58 1.83-1.5 3.88-4.92 3.33-6.67-.75-2.21-4-3.58-7.42-6.33l-261.38 157.88c-155.17 88.58-214.29 112-286.17 117.21l66.88-65.79c-103.29 29.29-189.13 58.71-274.33 89.88-9.58 3.5-17.04 12.67-30.29 22.88 15.46 18.54 26.63 38.42 43.46 50.42 18.29 13.04 41.79 18.83 63.5 27.96l-66.33 66.38zm-563.88 681.71c63.17 124.71 409.29 706.58 462.63 776.96 5.79 7.67 13.71 13.79 21.67 21.58 3.21-6.46 5.92-9.38 5.33-11.17-4.38-13.08-8.58-26.29-14.38-38.75-105.33-225.92-208.33-452.67-268.58-696.13-7.75-31.42-16.25-64.63-40.96-88.67-65.33 3-127.71 16.67-165.71 36.17zm-76.96-962.79c-8.17.79-35.96 2.13-63.33 6.42-155.5 24.29-253.71 115.42-303.5 262.29-17.5 51.58-17.67 103.42-2.17 155.54 42.17 141.96 139.25 230.96 275.71 277.75 58.13 19.92 121.29 24.71 180.92 6.54 131.38-40.08 231.79-118.79 281.96-250.54 45.29-119.04 28-229.83-56.42-326.5-77.17-88.33-174.75-134.75-313.17-131.5zm-483.63 732.13c-17.25 2.5-23.71-9.83-30.71-21.92l-75.92-129.71c-82.21 8.38-158.21 31.75-245.83 51.96 18.75 8.83 28.71 12.46 37.5 17.96 8.42 5.21 15.67 12.29 21.71 17.21-7.83 35.75-50.54 37.92-58.5 71.17l327.88-.33c8 0 15.96-4.33 23.92-6.67-33.92 47.25-70.25 92.92-101.33 141.96-75.08 118.5-169 219.58-276.67 308.5-40.63 33.54-82.42 65.71-123.38 98.83-9.63 7.79-18 17.04-26.96 25.58 25.79 1.38 46-5.33 64.75-14.88 84.67-43.04 160.13-99.54 230.67-162.5l252.29-229.63c41.5-38.08 43.96-56.33 25.75-110.58-8.54-25.42-24.46-42.5-45.17-56.96zm1081-1777.54c-7.83.58-18.71-1.83-22.92 2.42-7.5 7.5-11.96 18.63-16 28.88-74.63 190.13-180.29 362.5-300.5 526.58l-104 140.63c-6.04 8.08-14.33 14.5-28.29 28.29-9.42-43.42-1.46-78.42-1.71-112.92-.25-36.08.92-72.21.67-108.29l-2.42-108.29-2.79-108.29-3.29-99.92c-1.92-36.04-5.13-72-7.38-108.04s-3-72.21-6.29-108.13c-3.25-35.42-8.88-70.63-13.75-108.25-24.58 14.29-16.54 33.79-17.88 49.63l-50.71 597.46c-6.29 66.04-22.5 131.17-35.5 196.46-2.5 12.54-11.25 23.88-21.67 45.04l-41.5-100.25c-95.33-238.75-215.21-463.08-385.25-658.08a346.8 346.8 0 0 1-20.67-26.13c-18.21-25.33-29.63-53.25-30.67-84.83-5.88-177.83-8.67-355.38 33.5-530.29 87.83-364.42 316.17-601.71 660.83-735.75 98.75-38.42 178.79-14.08 247.42 61.79 41.29 45.71 74.25 96.88 99.5 153l36.88 85.58c7-25.38 4.96-42.92 5.92-59.75 2.83-50.88 30.75-83.21 77.25-97.46 66.38-20.29 132.42-19.46 191.46 22.33 29.29 20.71 57.04 44.46 82.17 70.08 193.38 197.58 305.42 435.33 335.5 709.13 49.33 448.58-93.75 830.88-409.33 1150.54-78.54 79.58-170.42 142.04-264.5 201.46-32.46 20.5-63.88 42.67-94.67 63.33.92 16.63-.08 27.92 2.46 38.33 6.46 26.58 14.54 52.75 23.54 84.71 17.88-8.71 33.92-13.38 46.08-22.92 212.67-167.17 412.13-347.25 557.5-579.17 53.25-84.96 98.71-173.71 128.08-270.08 4-13.08 9.83-25.58 15.04-39.04 78.5-33.08 159.63-50.75 241.13-66.54 262.92-51 508.17-2.13 735.54 136.42 71 43.25 138.63 92.25 205.96 141.21l258.83 194.5c.25 6.04 3.04 19.71 1.13 32.71-34.21 232.38-96.04 456-211.63 662.42-155.58 277.92-385.33 464.13-693 547.04-323.46 87.17-627.96 37.04-907.46-148.63-71.38-47.42-136.5-104.42-203.88-157.79-9.92-7.83-16.42-20.04-30.38-37.63 78.5 3.29 146.63 9.42 214.54 8.08 69.25-1.42 138.83-6.88 207.38-16.67s136.25-26 203.79-41.5c67.04-15.38 133.21-34.25 196.5-69.63-11.58-.96-23.33-3.75-34.71-2.63-58.04 5.54-116.25 10.08-173.83 18.71-135.33 20.29-271.33 17.13-407.42 16l-234.67-.13c-28.63 52-38.29 109.38-56.71 167.42 16.17 15.88 30.54 32.5 47.38 46.04 159.83 128.5 340.75 217.88 533.21 285.5 15.71 5.54 31.67 10.38 47.75 14.79 52.33 14.29 94.33 43.42 132.42 82.29 132.33 135.08 215.25 296.63 251.38 480.25 58 294.54 29.25 580.29-104.13 852.33-8.54 17.42-18.04 34.42-26.92 51.67-24.83 48.58-64 65.04-117.33 56.46-45.5-7.33-84.63-26.88-119.58-55-32.21-25.92-62.42-54.38-104.04-91.04 12.79 37.88 33.38 55.33 47.88 76.13 22.29 32.04 42.92 64.25 51.67 103.46 10.79 48.5-1.88 88.04-39.79 119.04-50.63 41.38-109.92 63.79-173.33 76.71-136.96 27.88-270.67 9.42-403.21-27.25-187.25-51.79-343.21-153.83-474.63-295.25-126.67-136.29-214.04-296.38-283.13-467.54-13.08-32.33-18.54-63.96-.88-96.21 87.42-159.83 101.04-338.79 133.25-513 10.58-57.13 26.38-113.29 40.08-169.79 5.21-21.54 12.08-42.71 16.5-64.38 2.13-10.46.33-21.71.33-33.54-23.79-23.21-48.21-35.92-82.21-23.13-28 10.5-60.63 8.79-86.96 34.92 6.04 35.67 14.96 73.04 18.29 110.92 9.29 105.58 2.04 210.88-12.33 315.63-4.88 35.63-13.58 70.79-21.46 106-46 205.38-162.46 361.92-333.08 481.29-166.21 116.25-352.71 172.63-553 187.63-185.5 13.92-365.17-15.75-541.08-73.58-69.42-22.83-102.08-53.21-59.13-146.83 14.42-31.38 36.63-59.21 62.42-100.04-51.5 23.08-89.79 44.79-130.88 57.42-39.29 12.08-81.25 17.63-122.46 20.83-43.92 3.42-88.29.79-133 .79-27.5-33.42-27.04-73.83-34.08-110.96-36.13-190.33-42.04-380.75 7.5-569.83 12.63-48.13 27.33-96.58 48.21-141.58 152.21-328.67 393.13-560.5 742.79-670.5 132.67-41.75 268.71-37.42 404.54-21.29 71.25 8.42 141.88 21.83 213.54 33.13 23.42-28.33 35.21-58.04 41.63-92.17-8.67-5.21-15-12.04-21.96-12.75-199.67-19.58-398.96-21-597.96 9.46-94.67 14.5-182.08 47.96-266 92.38-19.63 10.42-39.75 20.13-58.38 32.08-22.75 14.58-46.67 18.46-71.67 10.46-251.46-80.58-474-203.88-628.29-427.46-57.29-83.04-99.67-173.33-128-269.75l-113.04-400.5c-2.08-7.46-.25-16-.25-29.92l211.96-90.92c-4.46-11.5-5.67-20.5-10.63-26.33-56.5-67.08-73-148.13-82.17-231.83-1.5-13.79-2.29-27.67-3.42-41.5-3.13-37.83-16.67-69.79-49.58-91.71-11.38-7.58-21.63-16.92-37.29-29.38 11.42-10.71 19.17-21.04 29.46-26.96 16.75-9.67 34.71-17.67 52.92-24.29 219.25-79.96 439.83-155.17 673.54-181.71 220.92-25.08 438.46-10.79 649.42 62.79 190 66.25 351.38 177.38 485 327.46 170.58 191.54 292.46 410.5 365.21 656.92 13.29 44.96 29.92 89.63 51.33 131.17 20.58 40.04 61.08 40.17 85.83 2.75 18.08-27.29 31.71-57.54 49.5-90.54 44.79 16.04 85.92 54.29 131.38 14.08l41.25 33.92c7.63-3.92 16.88-5.92 21.67-11.63 14.21-16.92 28.92-34.08 39.5-53.33 92.46-167.79 184.29-335.96 249.17-517 26.13-72.83 49.67-146.58 74.33-220.08l-4.38-18.75c-.71.25-1.38.5-2.08.71l6.25 18.71zM2760.88 4070.82l-2.59 4.71 3.34 1.18-.75-5.88zm-56.29-210.87l34.88 66.73c38.89 76.72 74.65 155.2 117.01 229.94 116.2 205.01 264.68 383.76 447.78 532.68l376.85 302.54c236.67 189.17 434.68 412.54 592.84 670.96 91.92 150.08 164.67 308.5 201.88 481.54 49.96 232.58 32.21 458.08-72.33 674.17-39.08 80.83-91.21 152.38-155.08 215.25-11.29 11.13-25.29 19.5-44.63 34.08-11.13-47.33-22.33-86.96-29.63-127.33-62.84-348.79-192.33-671.92-379.81-971.33-109.01-174.08-225.62-343.42-339.46-514.46l-223.19-331.75c-187.73-284.83-326.4-592.71-427.94-917.79-7.36-23.54-15.45-46.89-31.43-68.7l9.05 51.03c72.38 346.25 206.7 667.58 395.98 965.46 105.71 166.33 219.43 327.58 328.48 491.83 61.43 92.5 121.47 185.96 180.85 279.79 195.3 308.67 320.64 645.21 396.88 1001.08l28.53 138.67c4.98 26.75 7.33 54 10.31 76.79-25.21 27.17-54.28 30.29-80.24 37.42-309.31 84.54-587.96 28.42-831.94-183.92-114.39-99.58-205.34-218.13-281.95-348.13-119.35-202.5-198.16-421.67-260.16-647.08-80.7-293.42-117.1-593.04-122.22-897.08-6.76-402.25 40-798 137.88-1187.91 3.79-15.09 11.06-29.3 20.8-54.48zm8880.96-726.07l47.5-82.4c68.63-108.83 120.42-225.07 153.08-349.5 42.67-162.55 12.21-311.92-81.33-454.98-141.5 52.71-204.21 176.26-284.13 295.2l-65.75-256.9c-23.96-82.43-57.17-161.46-102.58-233.3-24.67.23-28.46 18.13-35.46 31.63-46.33 89.44-75.38 185.29-96.13 283.05l-122.29 603.76c-5.75 28.39-10.58 57.3-23.63 91.95-9.79-14.48-16.96-20.4-17.92-27.19-23.58-167.67-53.58-334.82-68.13-503.3-36.83-426.61 85.29-800.88 385.63-1112.02 327.79-339.56 724-555.56 1184.17-655.78 56.88-12.39 114.71-20.56 171.96-31.34 35.75-6.73 64 3.03 89.75 29.76 50.46 52.42 93.13 110.2 128.58 173.48 65.63 117.09 110.42 242.33 142.79 372.07 119.92 480.55 92.21 952.2-87.58 1414.22-39.38 101.25-90.71 196.58-149.63 287.67-109.04 168.5-257.67 288.98-444.04 363.09-124.25 49.43-253.63 80.57-384.46 106.31-4.92.97-10.58-1.91-16.92-3.21 23.04-27.44 56.88-28.78 86.92-36.14 154.13-37.74 289.17-112.19 411.58-211.05 71.83-58.03 133.29-126.07 179.88-206.03a287.3 287.3 0 0 0 32.5-84.38c8.25-39.53-5.13-65.93-42.88-79.98-35.88-13.35-74.63-22-112.79-25.68-117.75-11.34-232.42 6.73-344.79 42.4-125.04 39.68-242.33 96.26-355.83 161.11l-136.38 80.3c-8.38 4.88-18.08 7.57-41.71 17.18zM3459.9 7263.55c-74.66-4.83-149.87-5.71-223.78-15.96-45.84-6.33-92.36-21.63-133.86-42.33-69.33-34.63-136.13-74.83-201.74-116.25-100.89-63.71-199.29-131.38-299.75-195.75-368.61-236.25-760.57-423.21-1176.26-561.63-242.08-80.58-483.92-162.63-718.17-264.75l-174.38-78.92c-100-48.71-196.25-103.75-281.93-175.71-11.48-9.67-24.86-17.04-45.43-16.88 7.4 9.83 13.7 20.88 22.4 29.42 59.85 58.75 129.67 104.04 200.94 147.42 192.69 117.25 396.46 211.54 606.97 291.46l538.19 200.25c374.45 137.54 723.89 323.83 1057.21 541.5l381.47 253.38c6.75 4.5 12.48 10.54 20 16.96-9.48 31.54-40.13 27.5-60.78 33.46-161.24 46.38-311.9 115.75-454.28 203.67-35.38 21.83-69.95 45.29-103.01 70.5-22.13 16.83-44.7 20.92-70.18 13.96-26.75-7.29-53.43-14.96-79.83-23.42-252.97-81.08-486.69-201.33-706.69-349.04-289.75-194.54-545.53-428.17-781.85-683.79-177.31-191.83-339.83-396.04-500.29-601.88-39.13-50.21-71.48-105.63-108.15-157.79-25.5-36.29-52.96-71.17-79.73-106.58l-68.91-90.25c11.58-18.13 22.04-7.92 30.45-4.54 227.18 91.04 464.82 126.21 707.77 134.33 205.81 6.88 410.62-11.54 615.5-25.04 356.7-23.46 703.36 21.58 1039.66 143.13 51.95 18.79 103.48 39.58 148.87 73.04l58.83 225.96c60.62 211.63 140.95 414.96 259.85 601.5 108.85 170.83 242.54 317.33 416.57 423.92 35.44 21.71 72.92 40.04 109.38 60.08l56.84 31.92-1.9 14.67zm15398.62 3554.21c-309.83 303.58-632.63 591.79-989.08 840.63-235.17 164.17-480.79 309.42-746.83 418.33-162.25 66.42-328.54 119.83-502.25 146.83-107 16.67-214.5 28.13-323.46 20.67l-143.33-151.92c-120.25-124.92-255.71-229.96-408.71-312.33-144.04-77.54-297.88-120.42-460.54-132.75l-227.08-14.83c-16.17-39.75-26.75-78.38-20.88-125.42 22.38-2.67 43.67-6.46 65.13-7.58l1056.54-55.13c105.17-6.04 210-20.33 314.58-33.88 267.04-34.5 532.92-76.88 797.13-129 425.25-83.88 844.42-191.13 1253.92-333.88 96.67-33.71 189.58-78.33 283.79-119 17.75-7.67 33.13-21.25 53.83-9.88l-2.75-.88zm-3216.55-2579.5c-5.08.83-12.25-.13-14.88 2.83-5.29 5.96-9.25 13.71-11.79 21.38-67.33 204.29-174.58 389.5-275.54 577.71l-230.92 433.46c-125.67 252-218.42 515.79-266.13 794.33-23.96 139.83-35.17 280.88-37.17 422.58l1.38 266.54c0 15.42 5.88 33.29-13.88 45.79-5.63-3.71-13.29-6.71-18.13-12.17-139.17-158.42-224.13-341.75-257.88-550.17-38.75-239.38 1.58-470.08 72.88-697.25 60.5-192.67 153.96-368.83 282.21-524.96 72.17-87.92 149.92-171.21 225.54-256.25l260.25-292.33c113.96-134.63 202.13-284.92 256.88-453.63 2.54-7.75 6.71-14.92 12.88-28.38 9.5 13.38 17.5 22.83 23.42 33.46 3.92 7.13 5.25 15.75 7.21 23.83l113.79 468.71c78.46 362.29 89.08 726.29 16.46 1091.17l-28.17 138.63c-6.92 31.46-25.13 54.21-54.54 69.38-32.04 16.5-62.71 35.63-93.75 54-289 171-507.88 410.13-677.17 697.38-13.79 23.33-28.33 46.21-49.42 80.5-6.42-30.75-12.54-48.63-13.63-66.79-8.75-150.17-.29-299.67 21.08-448.46 45-313.25 142-610.29 284.29-892.25l270.33-516.25c44.71-86.17 88.88-172.75 129.17-261.04 32.25-70.71 57.42-144.46 63.21-223.33-2-3.92 9.33-10.25-2.67-11.83l4.67 13.42z"/><path d="M18861.27 10818.63c-19.75-8.63-37.29-21.33-62.08-9.33-24.75 11.96-52.71 16.96-78.88 26.17-380.17 134.17-768.54 237.46-1164.58 312.71-251.08 47.67-503.88 83.33-757.63 112.5-126.83 14.58-254.21 25.71-381.58 34.67-338.08 23.79-676.58 37.75-1015.58 36.83-72.21-.17-144.42-2.63-216.58-4.5-30.08-.75-60.08-2.83-103.38-22.29 30.71-2.75 45.42-4.83 60.17-5.25 264.25-7.38 507.71-85.25 734.67-217.75 312.29-182.33 566.71-426.63 771.46-723.71l48.58-69.63 141.96 9.17c304.42 15.17 599.63 76.5 887.04 176.71 173 60.29 345.88 120.29 524.42 163 228.5 54.58 459 81.13 693.88 62.79 19-1.46 38.25-.17 56.58-.17 7.71 15.08-2.29 21.88-10.96 27.88l-130.5 89.21c.25.13 3 1 3 1zM5789.46 5573.5c5.71 5.75 13.08 10.58 16.88 17.42 107 192 235.29 370.08 359.42 550.88l610.17 884.54 53.67 78.92c-13.67 12.63-23.71 25.75-36.92 33.54-245.83 144.54-573.13 118.25-785.46-90.17-74.25-72.92-129.5-158.92-172.92-253.04-62.25-134.96-96.63-277.63-115.13-424.21-27.58-218.63-24.88-437.71-6.33-656.88 2.79-33.21 3.67-66.58 7.13-99.71 4.29-41.08 10.33-82 16.29-128.25 79.96 18.67 153.96 38.67 225.63 66.13l426.5 166.58c133.96 54.21 264 116.79 386.46 194.17 68.29 43.17 132.54 91.46 189.71 148.75 201.17 201.42 251.25 506.21 125.38 761.79-48.38 98.17-116.46 180.96-197.96 261.42l-57-78.08-964.75-1368.5c-15.92-22.58-32.88-44.75-52-64.58-4.88-5.08-19.79-.54-29.67-.63 4.17-3.71 9.21-6.67 11.13-11 .92-2.13-3.96-6.79-6.25-10.29-.83 2.13-2.13 4.17-2.46 6.38-.75 4.92-1.04 9.88-1.5 14.83zm3142.09-1062.29c-61.21 54.58-88.46 130.71-131.04 196.75-45.08 69.96-87.21 141.79-130.58 212.88l-125.92 205.96c-44.71 70.25-91.54 139.13-137.79 208.33l-134.96 200.21-135.13 200.08-143.71 204.29-139.46 203.42c-14.67-10.88-28.46-18.83-39.5-29.63-298.04-290.79-269.75-719.38-40.63-978.83 81.58-92.38 176.42-168.58 278.88-235.92 155.58-102.21 316.88-194.71 483.33-277.79 116.63-58.21 235.29-112.38 353.29-167.88 22.42-10.58 45.88-18.96 74.38-30.54 5.67 16.88 13.83 31 14.71 45.58a2193.4 2193.4 0 0 1 3.71 141.46c-1.21 177.71 2.83 355.08 15.25 532.54 10.42 149.38 12.46 299.21-9.25 448.71-47.08 324.75-261.46 565.75-579.46 646.5-104.21 26.46-209.29 24.46-313.67 2.79-54.17-11.25-107-28.88-160.17-44.63-10.04-2.96-18.71-10.5-33.29-19 33.25-51 70.58-95.21 104.08-141.96l106.83-148.79 99.25-143.96 100.46-153.17 93.25-147.88 95.79-156.13 89.21-150.33 91.83-158.46 86.17-152.08 90.92-159c28.54-49.17 62.38-95.83 73.21-153.54zm7612.42 8504.8c-2.92 24.75 8.42 37.96 39.13 48.5l-39.13-48.5zm-1536.42-1263.58c5.17-6.21 6.75-10 8.75-10.25 177.54-23.71 353.42-27.83 525.96 33.75 177.71 63.42 336.08 158.63 476.21 284 264.75 236.75 446.88 528.46 564.58 861.5 25.75 72.75 55.58 145.04 56.58 224.83.21 18.33 13 36.25 18.71 54.79 11.21 36.38 28.58 71.67 26.42 115.42-11.58-4.42-20.63-5.17-25.21-10.04-164-174.25-375.46-249.88-603.13-294.33-122.5-23.92-244.75-50.21-365.46-81.71-148.38-38.67-289.33-96.75-418.54-181.13-173.58-113.38-294.42-267.67-361.88-463.83-39.75-115.58-49.75-233-21.13-352.5 10.29-43.08 22.67-85.71 35.88-135.17 14.33 8.46 27.71 12.42 35.13 21.29 248.83 297.92 555.13 526.17 882.83 728.33l249.33 151c128 78.42 252.17 162.33 366.21 260.42 10.08 8.67 21.63 15.58 33.17 23.79 14.33-19.75-1.96-27.63-10.38-34.67l-219.13-179.25c-45.83-36-93.88-69.33-142.33-101.67-217.25-144.92-428.08-298.83-633.92-459.38-72.13-56.25-141.38-116.63-208-179.29-84.92-79.92-165.92-164-248.25-246.63-8.92-8.92-15.5-20.13-22.42-29.29zM1788.5 8067.01c16.74-9.17 33.05-19.25 50.3-27.29 129.19-60.25 245.33-140.17 355.15-230.54 163.77-134.75 343.49-244.29 537.08-330.96 163.27-73.08 332.89-127.25 511.69-138.04 238.88-14.46 451.65 45.92 605.6 245.96 33.73 43.79 67.73 87.33 95.21 140.33-17.68 11.17-32.79 23-49.71 31.04-154.05 73.13-315.08 124.13-485.05 141.29-113.09 11.42-226.76 18.38-340.34 23.13-130.34 5.5-260.89 5.58-391.31 9.33-191.95 5.54-381.29 33.29-569.43 70.08-27.08 5.29-53.6 13.83-79.95 22.21-7.03 2.25-12.52 9.33-25.73 19.71l254.18-33.08c126.58-18.17 253.38-30.04 381.52-25.83l382.99 9.29c183.7 3.67 366.18-9.46 546.54-45.25 62.49-12.38 124.71-27.38 185.67-45.75 42.13-12.71 82.12-32.79 122.65-50.5 24.87-10.88 48.95-23.54 69.39-33.46 26.53 13 22.34 31.13 18.99 46.46-9.14 41.79-33.1 75.92-61.05 107.33-57.92 65.13-126.49 116.42-204.3 155.25-107.79 53.75-222.51 84.92-341.14 103.04-180.26 27.63-360.15 18.33-539.04-9.92l-541.13-93.92c-134.21-25.38-269.58-34.17-405.42-40.83l-81.46-4.63-1.89-14.46zm15226.39 1032.87c16.71 28.42 12.21 55.71 10.38 82.38-7.08 102.71-25.58 203.58-49.92 303.42-129.29 530.71-413.92 963.92-828 1315.29-181.33 153.88-381.17 277.42-606.33 356.63-147.63 51.96-299.5 83.42-457.04 74-60.75-3.67-121.67-10.79-181.5-21.92-73.42-13.67-145.75-33.21-225.33-51.79 8.21-14.25 12.21-27.21 20.83-35.17 69.29-64.21 141.42-125.42 224-171.96l335.83-183.46c297.46-156.63 586.04-327.17 854.33-530.79 287.83-218.42 533.5-476.38 732.42-778.21 33.5-50.83 63.92-103.92 92.75-157.63 23.54-43.83 43.63-89.54 46.92-140.88 1.38-21.13 7.96-41.79 30.67-59.92zm-8040.67 6262.34c31.5-26.88 49.21-43.88 68.79-58.33 277.46-205.54 586.79-330.96 929.79-376.13 130.83-17.25 259.92-9.58 389.79 2.79 24.08 2.29 41.88 12.29 55.38 31.63l24.29 33.79c88.54 127.42 201.29 228.54 335.88 304.88 60.21 34.17 122.71 64.25 184.42 95.75 27.04 13.83 54.67 26.5 86.13 41.63-6.83 11.13-10.38 21.58-17.58 28-142.46 126.46-257.63 274.63-351.83 439.71-8 14-18.29 26.71-30.29 44-19.58-9.21-36.83-16.5-53.38-25.25l-183.21-98.21c-309.29-173.63-641.17-288.38-982.83-377.29-123.46-32.13-248.83-55.13-375.54-70.58-21.63-2.67-42.88-8.67-79.79-16.38zm5885.33-4474.71c3.29-18.13 3.33-23.96 5.38-28.92 136-332.92 335.75-618.13 626.25-835.08 118.63-88.63 248.67-156.29 387.38-207.79l396.88-149.88c249.33-99.92 458.38-257.42 638.33-455.17 12.88-14.17 27.88-26.42 42.13-39.25.88-.79 3.92.83 10.96 2.54-3.29 10-5 20.46-9.92 29.08-43.67 77.13-84.21 156.42-132.71 230.42-183.46 279.96-422.63 505.54-692 701.33-197.79 143.79-405.88 271.54-615.33 397.04-154.63 92.67-311.29 182-468 271.17-45.67 25.96-94.54 46.46-142.25 68.79-11.88 5.58-25.04 8.46-47.08 15.71zm-1968.66 779.79c-28-61.38-25.42-125.92-38.96-191.08 12.92-7.13 23.83-15.54 36.17-19.54l1092.33-352.25c209.08-65.5 423.17-113.17 639.33-149.92 36.67-6.21 74.08-16.46 111.88-9.92 3.17 27.79-16.04 38.33-26.83 53.13-19.63 26.83-38.5 54.83-62 77.96-12.67 12.46-33.63 18.96-51.96 22.79-299.58 62.46-585.04 171.46-875.5 263.96-9.5 3.04-18.33 8.29-40.5 18.54 23 5.75 32.58 9.92 42.29 10.21l133.17 2.21c321.79-1.63 634.75 54.88 942.42 144.33 41.96 12.17 81.21 34.5 120.46 54.63 10.04 5.13 15.25 19.63 28.75 38.13-29.46-1.96-48.63-.83-66.63-4.92-48.63-11.08-97.13-23.04-144.96-37.08-165.75-48.63-335.92-71.25-506.83-91.75-171.58-20.63-343.63-18.58-515.33-11.96-265.17 10.25-523.17 59.25-768.46 164.96-15 6.5-30.83 11.17-48.83 17.58zm-8701.3-6905.38c15.58 24.63 23.08 32.63 26.29 42.08 53.71 158.63 135.42 303.88 213.79 450.75 71.83 134.71 143.21 269.63 200.42 411.42 63.75 158.13 104.79 321.21 113.08 492.46 14.46 297.21-79.63 556.58-267.21 784.42-26.92 32.71-27.79 32-69.75 51-9.5-16.08 4.42-25.46 11.33-35.54 141.71-206.96 182.42-436.5 157.54-682.38-27.33-270.33-133.54-509.25-293.38-724.04-75.13-100.92-107.79-209.75-117.23-331.42-11.45-147.75-.04-293.63 25.11-458.75zm7125.75 7364.09l116.63 77.96c6.04 4.17 9.5 12.08 18.54 24.04-46.88 8.79-84.67-4.75-118.13-24.42-21.29-12.5-26.21-39.17-17.04-77.58zM3630.53 7290.55l-13.08 1.75 12.5-2.42c.06-.04.59.67.59.67z"/></svg>